<?xml version="1.0" encoding="utf-8"?>
<!-- Generator: Adobe Illustrator 21.0.1, SVG Export Plug-In . SVG Version: 6.00 Build 0)  -->
<svg version="1.1" id="Layer_1" xmlns="http://www.w3.org/2000/svg" xmlns:xlink="http://www.w3.org/1999/xlink" x="0px" y="0px"
	 viewBox="0 0 215.3 216" style="enable-background:new 0 0 215.3 216;" xml:space="preserve">
<style type="text/css">
	.st0{fill:#212121;}
	.st1{display:none;}
	.st2{fill:none;stroke:#FFFFFF;stroke-width:2;stroke-linecap:round;stroke-miterlimit:10;}
	.st3{fill:none;stroke:#E43926;stroke-width:2;stroke-miterlimit:10;}
	.st4{fill:none;stroke:#E6C51F;stroke-width:2;stroke-miterlimit:10;}
	.st5{fill:none;stroke:#E63727;stroke-width:2;stroke-miterlimit:10;}
	.st6{fill:none;stroke:#465EAB;stroke-width:2;stroke-miterlimit:10;}
	.st7{fill:none;stroke:#FFFFFF;stroke-width:2;stroke-miterlimit:10;}
	.st8{fill:none;stroke:#E7C51E;stroke-width:2;stroke-miterlimit:10;}
	.st9{fill:#FFFFFF;}
	.st10{fill:#E7C51E;}
	.st11{fill:#E43926;}
	.st12{fill:#465EAB;}
	.st13{fill:none;stroke:#E7C51E;stroke-width:6;stroke-miterlimit:10;}
	.st14{fill:none;stroke:#E43926;stroke-width:6;stroke-miterlimit:10;}
	.st15{fill:none;stroke:#465EAB;stroke-width:6;stroke-miterlimit:10;}
	.st16{fill:#1E1E1E;}
	.st17{clip-path:url(#SVGID_2_);}
	.st18{clip-path:url(#SVGID_6_);}
	.st19{clip-path:url(#SVGID_10_);}
	.st20{clip-path:url(#SVGID_14_);}
	.st21{clip-path:url(#SVGID_18_);}
	.st22{clip-path:url(#SVGID_22_);}
	.st23{clip-path:url(#SVGID_26_);}
	.st24{clip-path:url(#SVGID_30_);}
	.st25{clip-path:url(#SVGID_34_);}
	.st26{clip-path:url(#SVGID_38_);}
	.st27{clip-path:url(#SVGID_42_);}
	.st28{clip-path:url(#SVGID_46_);}
	.st29{clip-path:url(#SVGID_50_);}
	.st30{clip-path:url(#SVGID_54_);}
	.st31{clip-path:url(#SVGID_58_);}
	.st32{clip-path:url(#SVGID_62_);}
	.st33{clip-path:url(#SVGID_66_);}
	.st34{clip-path:url(#SVGID_70_);}
	.st35{clip-path:url(#SVGID_74_);}
	.st36{clip-path:url(#SVGID_78_);}
	.st37{clip-path:url(#SVGID_82_);}
	.st38{clip-path:url(#SVGID_86_);}
	.st39{clip-path:url(#SVGID_90_);}
	.st40{fill:none;stroke:#465EAB;stroke-width:5;stroke-miterlimit:10;}
	.st41{fill:none;stroke:#E7C51E;stroke-width:4;stroke-miterlimit:10;}
	.st42{clip-path:url(#SVGID_94_);}
	.st43{fill:none;stroke:#E43926;stroke-width:5;stroke-miterlimit:10;}
	.st44{fill:none;stroke:#212121;stroke-width:4;stroke-miterlimit:10;}
	.st45{clip-path:url(#SVGID_98_);}
	.st46{clip-path:url(#SVGID_102_);}
	.st47{clip-path:url(#SVGID_106_);}
	.st48{clip-path:url(#SVGID_110_);}
	.st49{clip-path:url(#SVGID_114_);}
	.st50{clip-path:url(#SVGID_118_);}
	.st51{clip-path:url(#SVGID_122_);}
	.st52{clip-path:url(#SVGID_126_);}
	.st53{opacity:0.94;fill:#E7C51E;}
	.st54{clip-path:url(#SVGID_130_);}
	.st55{clip-path:url(#SVGID_134_);}
	.st56{clip-path:url(#SVGID_138_);}
	.st57{clip-path:url(#SVGID_142_);}
	.st58{clip-path:url(#SVGID_146_);}
	.st59{clip-path:url(#SVGID_150_);}
	.st60{clip-path:url(#SVGID_154_);}
	.st61{clip-path:url(#SVGID_158_);}
	.st62{clip-path:url(#SVGID_162_);}
	.st63{clip-path:url(#SVGID_166_);}
	.st64{clip-path:url(#SVGID_170_);}
	.st65{clip-path:url(#SVGID_174_);}
	.st66{clip-path:url(#SVGID_178_);}
	.st67{clip-path:url(#SVGID_182_);}
	.st68{clip-path:url(#SVGID_186_);}
	.st69{clip-path:url(#SVGID_190_);}
	.st70{clip-path:url(#SVGID_194_);}
	.st71{clip-path:url(#SVGID_198_);}
	.st72{clip-path:url(#SVGID_202_);}
	.st73{clip-path:url(#SVGID_206_);}
	.st74{clip-path:url(#SVGID_210_);}
	.st75{fill:#465EAB;stroke:#465EAB;stroke-miterlimit:10;}
	.st76{clip-path:url(#SVGID_214_);}
	.st77{clip-path:url(#SVGID_218_);}
	.st78{clip-path:url(#SVGID_222_);}
	.st79{clip-path:url(#SVGID_226_);}
	.st80{clip-path:url(#SVGID_230_);}
	.st81{clip-path:url(#SVGID_234_);}
	.st82{clip-path:url(#SVGID_238_);}
	.st83{clip-path:url(#SVGID_242_);}
	.st84{clip-path:url(#SVGID_246_);}
	.st85{clip-path:url(#SVGID_250_);}
	.st86{clip-path:url(#SVGID_254_);}
	.st87{opacity:0.94;fill:#E7C51E;stroke:#E7C51E;stroke-width:11;stroke-miterlimit:10;}
	.st88{fill:#465EAB;stroke:#465EAB;stroke-width:8;stroke-miterlimit:10;}
	.st89{fill:#E43926;stroke:#E43B27;stroke-width:7;stroke-miterlimit:10;}
	.st90{fill:none;stroke:#020202;stroke-width:4;stroke-miterlimit:10;}
	.st91{fill:none;stroke:#465EAB;stroke-width:15;stroke-linecap:round;stroke-miterlimit:10;}
	.st92{fill:none;stroke:#E7C825;stroke-width:15;stroke-linecap:round;stroke-miterlimit:10;}
	.st93{fill:none;stroke:#E43926;stroke-width:15;stroke-linecap:round;stroke-miterlimit:10;}
	.st94{fill:#224387;}
	.st95{fill:#9B2320;}
	.st96{fill:#AC9030;}
	.st97{fill:#E7C825;}
	.st98{fill:#465EAB;stroke:#465EAB;stroke-width:10;stroke-miterlimit:10;}
	.st99{fill:#E7C825;stroke:#E7C822;stroke-width:12;stroke-miterlimit:10;}
	.st100{fill:#E43926;stroke:#E43B27;stroke-width:8;stroke-miterlimit:10;}
	.st101{fill:#2D2D2D;}
	.st102{fill:none;stroke:#282828;stroke-width:8;stroke-miterlimit:10;}
	.st103{fill:none;stroke:#2D2D2D;stroke-width:8;stroke-miterlimit:10;}
</style>
<g>
	<g>
		<path class="st98" d="M54.7,106c2.3,3.1,1.7,5.1,1.7,5.1s2.4,2.8,0.4,3.6c-4.8,1.9-22.6,5.1-24,5.1c-1.3,0-4.1,0-22.8-14.3l-1-0.8
			l-0.4-1.2c-0.4-1.2-0.3-2.5,0.3-3.7c1.6-3.1,9.8-6.6,15.7-8.7c-7.4-8.7-18.7-25.6-18.7-37c0-0.5,0-1.3,4.3-21.9
			c4.5-21.7,4.5-21.7,5.9-22.8l1.6-1.2l2,0.5c2.6,0.7,2.7,0.8,12,24.7c3.9,9.9,9.7,24.8,11.3,27.4c1.4,1.1,7.1,3.2,16.8,6.3
			c0.6,0.2,1.2,0.4,1.6,0.5l31-7.6l22.8,2.1c2.3,0-5.3-0.3-5.3,2c0,2.3,6.7,5.2,4.5,5.2l-8.5-1.2l-12.5,0l-29.9,7.3l-1.6,0.1l-2-0.1
			c-0.5-0.2-1.4-0.2-2.6-0.6c-11.3-3.6-17.8-5.9-20.2-8.3c-1.9-1.9-4.8-8.8-13.1-30.1c-1.4-3.5-2.9-7.3-4.2-10.8
			c-2.3,11.1-5.5,26.5-5.8,28.7c0.2,11.1,16.5,32.6,20.1,35.1l9.1,3.9L54.7,106z M14.1,54.1C14.1,54.1,14.1,54.1,14.1,54.1
			C14.1,54.1,14.1,54.1,14.1,54.1z"/>
	</g>
	<g>
		<path class="st99" d="M171.2,92.7l8.4-4.2c3.5-2.4,19.7-23.9,19.9-34.9c-0.3-2.2-3.5-17.5-5.8-28.6c-1.4,3.4-2.9,7.3-4.2,10.8
			c-8.3,21.2-11.1,28.1-13,30c-2.4,2.4-8.9,4.7-20.1,8.3c-1.3,0.4-2.2,0.7-2.7,0.9l0,0l-2.3-0.1l-1.1-0.1l-29.7-5.3l-12.4-2
			c-2.2,0-4.1-1.8-4.1-4.1c0-2.2,1.8-4.1,4.1-4.1l13.1,1.3l31.1,6.3c0.5-0.1,1-0.3,1.6-0.5c9.6-3,15.2-5.1,16.7-6.2
			c1.7-2.6,7.4-17.4,11.3-27.2c9.3-23.8,9.4-23.8,12-24.6l1.9-0.6l1.6,1.2c1.4,1.1,1.4,1.1,5.9,22.7c4.3,20.5,4.3,21.3,4.3,21.8
			c0,11.3-11.2,28.2-18.6,36.8c5.9,2.1,14,5.6,15.6,8.7c0.6,1.2,0.7,2.5,0.3,3.7l-0.4,1.2l-1,0.8c-18.6,14.3-21.3,14.3-22.7,14.3
			c-1.4,0-15.4-4.9-20.1-6.8c0,0,3.8-10.7,6.9-14C168.8,96.8,171.2,92.7,171.2,92.7z M199.6,53.3C199.6,53.4,199.6,53.4,199.6,53.3
			C199.6,53.4,199.6,53.4,199.6,53.3z"/>
	</g>
	<g>
		<path class="st100" d="M106.5,209.5c-5.2,0-13.9-1.9-15-2.1l-1.2-0.3l-0.9-0.9c-18-18.6-18-19-18-21c0-0.6,0.1-2.1,0.3-4.8
			c0.2-2.6,0.4-6,0.5-8.1c0,0,0,0,0,0c-18.3-24.8-18.9-26.6-19.3-27.6c-0.6-1.7-0.5-4.8,0.1-16.1c0.2-3.8,0.4-7.7,0.4-10.4
			c0-2.2,1.9-4,4.1-4c0,0,0,0,0.1,0c2.3,0,4.1,1.9,4,4.2c-0.1,2.9-0.3,6.9-0.5,10.7c-0.2,4.5-0.6,11.2-0.4,13.1
			c0.7,1.2,3.8,6.1,18,25.3c1.3,1.7,1.7,2.2,1.7,3.6c0,2.1-0.3,6.5-0.5,10c-0.1,1-0.1,2.1-0.2,3c2.2,2.5,8.6,9.4,14.8,15.7
			c3.3,0.7,9.6,1.8,12.5,1.6c0.6,0,2.6,0,3.2,0c2.7,0.1,8.6-0.9,12.5-1.6c6.1-6.3,12.6-13.2,14.8-15.7c-0.1-0.8-0.1-1.9-0.2-3
			c-0.2-3.5-0.5-7.9-0.5-10c0-1.4,0.4-1.9,1.7-3.6c14.2-19.2,17.4-24.1,18-25.3c0.1-1.9-0.2-8.6-0.4-13.1c-0.2-3.9-0.4-7.8-0.5-10.7
			c0-2.3,5.3-6.6,7.5-6.7c0,0-3.5,2.5-3.4,2.5c2.2,0,4.1,1.8,4.1,4c0,2.7,0.2,6.6,0.4,10.4c0.6,11.3,0.6,14.4,0.1,16.1
			c-0.4,1-1,2.8-19.3,27.6c0,0,0,0,0,0c0.1,2.2,0.3,5.5,0.5,8.1c0.2,2.7,0.3,4.2,0.3,4.8c0,2,0,2.4-18,21l-0.9,0.9l-1.2,0.3
			c-1.1,0.2-10.9,2.3-15.9,2.1c-0.3,0-2,0-2.4,0C107.2,209.4,106.8,209.5,106.5,209.5z M60.8,142.3L60.8,142.3L60.8,142.3z"/>
	</g>
	<g>
		<path class="st101" d="M113.2,199.6c-5.2,0-13.8-1.9-14.8-2.1l-1.2-0.3l-0.8-0.9c-17.9-18.5-17.9-18.8-17.9-20.8
			c0-0.6,0.1-2.1,0.3-4.8c0.2-2.6,0.4-6,0.5-8.1c0,0,0,0,0,0C61,138,60.4,136.3,60.1,135.2c-0.6-1.7-0.5-4.8,0.1-16
			c0.1-1.7,0.2-3.4,0.2-5c-7.1,1.7-17.3,3.5-18.3,3.5c-1.2,0-4.1,0-22.7-14.3l-1-0.7l-0.4-1.2c-0.4-1.2-0.3-2.5,0.3-3.6
			c1.6-3.1,9.8-6.6,15.7-8.7c-7.4-8.6-18.7-25.7-18.7-37.1c0-0.5,0-1.3,4.3-21.9c4.5-21.7,4.5-21.7,5.9-22.7L27,6.2L29,6.8
			c2.6,0.7,2.7,0.8,12,24.7c3.9,9.9,9.7,24.9,11.4,27.4c1.4,1.1,7.1,3.2,16.8,6.3c0.6,0.2,1.2,0.4,1.6,0.5l31-7.6h26.9l31,7.6
			c0.5-0.2,1-0.3,1.6-0.5c9.7-3.1,15.3-5.2,16.8-6.3c1.7-2.6,7.5-17.5,11.4-27.4c9.3-23.9,9.4-23.9,12-24.7l1.9-0.5l1.6,1.2
			c1.4,1.1,1.4,1.1,5.9,22.7c4.3,20.6,4.3,21.4,4.3,21.9c0,11.4-11.4,28.4-18.7,37.1c5.9,2.1,14.1,5.6,15.7,8.7
			c0.6,1.2,0.7,2.4,0.3,3.6l-0.4,1.2l-1,0.7c-18.6,14.3-21.5,14.3-22.7,14.3c-1,0-11.2-1.8-18.3-3.5c0.1,1.6,0.2,3.3,0.2,5
			c0.6,11.2,0.6,14.3,0.1,16c-0.4,1-1,2.8-19.2,27.4c0,0,0,0,0,0c0.1,2.2,0.3,5.5,0.5,8.1c0.2,2.7,0.3,4.1,0.3,4.8
			c0,2,0,2.4-17.9,20.8l-0.8,0.9l-1.2,0.3c-1.1,0.2-10.8,2.3-15.8,2.1c-0.3,0-2,0-2.4,0C113.8,199.6,113.5,199.6,113.2,199.6z
			 M101.3,190c3.3,0.7,9.6,1.8,12.5,1.6c0.6,0,2.6,0,3.2,0c2.7,0.1,8.6-0.9,12.5-1.6c6.1-6.3,12.6-13.1,14.7-15.6
			c-0.1-0.8-0.1-1.9-0.2-3c-0.2-3.5-0.5-7.9-0.5-9.9c0-1.3,0.4-1.8,1.6-3.5c14.2-19.2,17.3-24,18-25.2c0.1-1.9-0.2-8.6-0.4-13.1
			c-0.2-3.8-0.4-7.8-0.4-10.6l-0.1-6l5.6,2.2c3.5,1.4,17,3.9,20.7,4.5c2.2-1,8.1-5.1,14-9.5c-4.4-2.1-11.6-4.7-14.1-5.4l-9-2.6
			l8.1-4.7c3.6-2.5,19.9-24.1,20.1-35.2c-0.3-2.3-3.5-17.8-5.9-29c-1.4,3.5-2.9,7.5-4.3,11c-8.3,21.3-11.2,28.2-13.1,30.1
			c-2.4,2.4-8.9,4.8-20.2,8.3c-1.3,0.4-2.2,0.7-2.7,0.9l-0.3,0.1l-1.4,0.3l-1.8-0.7l-29.9-7.3l-12.5,0l-12.5,0l-29.9,7.3l-1.5,0.3
			l-1.9,0c-0.5-0.2-1.5-0.5-2.7-0.9c-11.2-3.6-17.8-5.9-20.2-8.3c-1.9-1.9-4.8-8.8-13.1-30.1c-1.4-3.6-2.9-7.5-4.3-11
			c-2.4,11.2-5.5,26.8-5.9,29C23.5,63.4,39.9,85,43.4,87.5l8.2,4.7l-9.1,2.6c-2.5,0.7-9.7,3.4-14.1,5.4c5.9,4.3,11.8,8.5,14,9.5
			c3.7-0.6,17.3-3.1,20.7-4.5l5.6-2.2l-0.1,6c-0.1,2.8-0.3,6.8-0.4,10.6c-0.2,4.5-0.6,11.2-0.4,13.1c0.7,1.2,3.8,6,18,25.2
			c1.2,1.7,1.6,2.2,1.6,3.5c0,2.1-0.3,6.4-0.5,9.9c-0.1,1-0.1,2.1-0.2,3C88.7,176.8,95.2,183.7,101.3,190z M23.3,52.1
			C23.3,52.1,23.3,52.1,23.3,52.1C23.3,52.1,23.3,52.1,23.3,52.1z M207.3,52.1C207.3,52.1,207.3,52.1,207.3,52.1
			C207.3,52.1,207.3,52.1,207.3,52.1z"/>
	</g>
</g>
</svg>
