<?xml version="1.0" encoding="utf-8"?>
<!-- Generator: Adobe Illustrator 21.0.1, SVG Export Plug-In . SVG Version: 6.00 Build 0)  -->
<svg version="1.1" id="Layer_1" xmlns="http://www.w3.org/2000/svg" xmlns:xlink="http://www.w3.org/1999/xlink" x="0px" y="0px"
	 viewBox="0 0 496.9 275" style="enable-background:new 0 0 496.9 275;" xml:space="preserve">
<style type="text/css">
	.st0{fill:#212121;}
	.st1{display:none;}
	.st2{fill:none;stroke:#FFFFFF;stroke-width:2;stroke-linecap:round;stroke-miterlimit:10;}
	.st3{fill:none;stroke:#E43926;stroke-width:2;stroke-miterlimit:10;}
	.st4{fill:none;stroke:#E6C51F;stroke-width:2;stroke-miterlimit:10;}
	.st5{fill:none;stroke:#E63727;stroke-width:2;stroke-miterlimit:10;}
	.st6{fill:none;stroke:#465EAB;stroke-width:2;stroke-miterlimit:10;}
	.st7{fill:none;stroke:#FFFFFF;stroke-width:2;stroke-miterlimit:10;}
	.st8{fill:none;stroke:#E7C51E;stroke-width:2;stroke-miterlimit:10;}
	.st9{fill:#FFFFFF;}
	.st10{fill:#E7C51E;}
	.st11{fill:#E43926;}
	.st12{fill:#465EAB;}
	.st13{fill:none;stroke:#E7C51E;stroke-width:6;stroke-miterlimit:10;}
	.st14{fill:none;stroke:#E43926;stroke-width:6;stroke-miterlimit:10;}
	.st15{fill:none;stroke:#465EAB;stroke-width:6;stroke-miterlimit:10;}
	.st16{fill:#1E1E1E;}
	.st17{clip-path:url(#SVGID_22_);}
	.st18{clip-path:url(#SVGID_25_);}
	.st19{clip-path:url(#SVGID_30_);}
	.st20{clip-path:url(#SVGID_33_);}
	.st21{clip-path:url(#SVGID_38_);}
	.st22{clip-path:url(#SVGID_41_);}
	.st23{clip-path:url(#SVGID_46_);}
	.st24{clip-path:url(#SVGID_49_);}
	.st25{clip-path:url(#SVGID_54_);}
	.st26{clip-path:url(#SVGID_57_);}
	.st27{clip-path:url(#SVGID_62_);}
	.st28{clip-path:url(#SVGID_65_);}
	.st29{clip-path:url(#SVGID_70_);}
	.st30{clip-path:url(#SVGID_73_);}
	.st31{clip-path:url(#SVGID_78_);}
	.st32{clip-path:url(#SVGID_81_);}
	.st33{clip-path:url(#SVGID_86_);}
	.st34{clip-path:url(#SVGID_89_);}
	.st35{clip-path:url(#SVGID_94_);}
	.st36{clip-path:url(#SVGID_97_);}
	.st37{clip-path:url(#SVGID_102_);}
	.st38{clip-path:url(#SVGID_105_);}
	.st39{clip-path:url(#SVGID_110_);}
	.st40{fill:none;stroke:#465EAB;stroke-width:5;stroke-miterlimit:10;}
	.st41{fill:none;stroke:#E7C51E;stroke-width:4;stroke-miterlimit:10;}
	.st42{clip-path:url(#SVGID_113_);}
	.st43{fill:none;stroke:#E43926;stroke-width:5;stroke-miterlimit:10;}
	.st44{fill:none;stroke:#212121;stroke-width:4;stroke-miterlimit:10;}
	.st45{clip-path:url(#SVGID_118_);}
	.st46{clip-path:url(#SVGID_121_);}
	.st47{clip-path:url(#SVGID_126_);}
	.st48{clip-path:url(#SVGID_129_);}
	.st49{clip-path:url(#SVGID_134_);}
	.st50{clip-path:url(#SVGID_137_);}
	.st51{clip-path:url(#SVGID_142_);}
	.st52{clip-path:url(#SVGID_145_);}
	.st53{opacity:0.94;fill:#E7C51E;}
	.st54{clip-path:url(#SVGID_150_);}
	.st55{clip-path:url(#SVGID_153_);}
	.st56{clip-path:url(#SVGID_158_);}
	.st57{clip-path:url(#SVGID_161_);}
	.st58{clip-path:url(#SVGID_166_);}
	.st59{clip-path:url(#SVGID_169_);}
	.st60{clip-path:url(#SVGID_174_);}
	.st61{clip-path:url(#SVGID_177_);}
	.st62{clip-path:url(#SVGID_182_);}
	.st63{clip-path:url(#SVGID_185_);}
	.st64{clip-path:url(#SVGID_190_);}
	.st65{clip-path:url(#SVGID_193_);}
	.st66{clip-path:url(#SVGID_198_);}
	.st67{clip-path:url(#SVGID_201_);}
	.st68{clip-path:url(#SVGID_206_);}
	.st69{clip-path:url(#SVGID_209_);}
	.st70{clip-path:url(#SVGID_214_);}
	.st71{clip-path:url(#SVGID_217_);}
	.st72{clip-path:url(#SVGID_222_);}
	.st73{clip-path:url(#SVGID_225_);}
	.st74{clip-path:url(#SVGID_228_);}
	.st75{fill:#465EAB;stroke:#465EAB;stroke-miterlimit:10;}
	.st76{clip-path:url(#SVGID_230_);}
	.st77{clip-path:url(#SVGID_233_);}
	.st78{clip-path:url(#SVGID_235_);}
	.st79{clip-path:url(#SVGID_238_);}
	.st80{clip-path:url(#SVGID_240_);}
	.st81{clip-path:url(#SVGID_243_);}
	.st82{clip-path:url(#SVGID_245_);}
	.st83{clip-path:url(#SVGID_248_);}
	.st84{clip-path:url(#SVGID_250_);}
	.st85{clip-path:url(#SVGID_253_);}
	.st86{clip-path:url(#SVGID_255_);}
	.st87{opacity:0.94;fill:#E7C51E;stroke:#E7C51E;stroke-width:11;stroke-miterlimit:10;}
	.st88{fill:#465EAB;stroke:#465EAB;stroke-width:8;stroke-miterlimit:10;}
	.st89{fill:#E43926;stroke:#E43B27;stroke-width:7;stroke-miterlimit:10;}
	.st90{fill:none;stroke:#020202;stroke-width:4;stroke-miterlimit:10;}
	.st91{fill:none;stroke:#465EAB;stroke-width:15;stroke-linecap:round;stroke-miterlimit:10;}
	.st92{fill:none;stroke:#E7C825;stroke-width:15;stroke-linecap:round;stroke-miterlimit:10;}
	.st93{fill:none;stroke:#E43926;stroke-width:15;stroke-linecap:round;stroke-miterlimit:10;}
	.st94{fill:#224387;}
	.st95{fill:#9B2320;}
	.st96{fill:#AC9030;}
	.st97{fill:#E7C825;}
	.st98{fill:#465EAB;stroke:#465EAB;stroke-width:10;stroke-miterlimit:10;}
	.st99{fill:#E7C825;stroke:#E7C822;stroke-width:12;stroke-miterlimit:10;}
	.st100{fill:#E43926;stroke:#E43B27;stroke-width:8;stroke-miterlimit:10;}
	.st101{fill:#2D2D2D;}
	.st102{fill:#475FAB;}
	.st103{fill:#E7C823;}
	.st104{fill:#E7C820;}
	.st105{fill:#E33C27;}
	.st106{fill:#E33E28;}
	.st107{fill:#2D2E2D;}
</style>
<g>
	<defs>
		<polygon id="SVGID_237_" points="41.8,54.8 429,54.8 429,137.2 217.2,152.6 31.8,145.6 		"/>
	</defs>
	<clipPath id="SVGID_22_">
		<use xlink:href="#SVGID_237_"  style="overflow:visible;"/>
	</clipPath>
	<g class="st17">
		<path class="st11" d="M98.4,3.6c13,0,22.8,2.3,29.5,6.9s10,11.5,10,20.7c0,8.5-2.4,15.5-7.1,21.1c-4.7,5.5-11.4,9.2-20.1,11v0.5
			c5.7,1.5,10.2,4.2,13.6,8.2c3.4,4,5.1,9.1,5.1,15.4c0,13-4.3,23-13,30.1s-20.7,10.6-36,10.6H35.9L62.2,3.6H98.4z M66.4,106.3h15.3
			c6.6,0,11.8-1.6,15.6-4.9c3.8-3.3,5.7-7.9,5.7-13.7c0-9.2-5.2-13.8-15.6-13.8h-14L66.4,106.3z M77.8,52.9h12.7
			c6.9,0,12-1.4,15.5-4.1c3.4-2.8,5.2-6.7,5.2-11.9c0-7.8-4.8-11.7-14.5-11.7H83.6L77.8,52.9z"/>
		<path class="st11" d="M261.6,3.6l-17.1,80.5c-3.2,15.1-9.4,26.5-18.6,34.1c-9.1,7.7-21,11.5-35.7,11.5c-12,0-21.5-3.2-28.4-9.7
			s-10.3-15.2-10.3-26.2c0-4.1,0.4-8,1.3-11.8l16.7-78.6h26l-16.5,78.2c-1,4.2-1.4,7.7-1.4,10.6c0,10.1,5.4,15.2,16.1,15.2
			c7,0,12.5-2.2,16.6-6.5s7-10.8,8.9-19.5l16.5-78.1H261.6z"/>
		<path class="st11" d="M264.5,128.1L290.8,3.6h26.1L295,106.3h43.6l-4.6,21.8H264.5z"/>
		<path class="st11" d="M354.8,128.1L381.1,3.6h26.1l-21.8,102.7H429l-4.6,21.8H354.8z"/>
	</g>
</g>
<g>
	
		<image style="overflow:visible;opacity:0.2;" width="976" height="383" xlink:href="352DBB3D7631C436.png"  transform="matrix(0.4185 0 0 0.4185 35.013 0)">
	</image>
	<g>
		<g>
			<defs>
				<polygon id="SVGID_18_" points="48.7,54.8 436,54.8 436,137.2 224.1,152.6 38.8,145.6 				"/>
			</defs>
			<clipPath id="SVGID_24_">
				<use xlink:href="#SVGID_18_"  style="overflow:visible;"/>
			</clipPath>
		</g>
		<g>
			<defs>
				<polygon id="SVGID_17_" points="48.7,54.8 436,54.8 436,137.2 224.1,152.6 38.8,145.6 				"/>
			</defs>
			<clipPath id="SVGID_25_">
				<use xlink:href="#SVGID_17_"  style="overflow:visible;"/>
			</clipPath>
			<g class="st18">
				<path class="st16" d="M105.4,3.6c13,0,22.8,2.3,29.5,6.9s10,11.5,10,20.7c0,8.5-2.4,15.5-7.1,21.1c-4.7,5.5-11.4,9.2-20.1,11
					v0.5c5.7,1.5,10.2,4.2,13.6,8.2c3.4,4,5.1,9.1,5.1,15.4c0,13-4.3,23-13,30.1s-20.7,10.6-36,10.6H42.8L69.1,3.6H105.4z
					 M73.4,106.3h15.3c6.6,0,11.8-1.6,15.6-4.9c3.8-3.3,5.7-7.9,5.7-13.7c0-9.2-5.2-13.8-15.6-13.8h-14L73.4,106.3z M84.7,52.9h12.7
					c6.9,0,12-1.4,15.5-4.1c3.4-2.8,5.2-6.7,5.2-11.9c0-7.8-4.8-11.7-14.5-11.7H90.6L84.7,52.9z"/>
				<path class="st16" d="M268.6,3.6l-17.1,80.5c-3.2,15.1-9.4,26.5-18.6,34.1c-9.1,7.7-21,11.5-35.7,11.5c-12,0-21.5-3.2-28.4-9.7
					c-6.9-6.4-10.3-15.2-10.3-26.2c0-4.1,0.4-8,1.3-11.8l16.7-78.6h26l-16.5,78.2c-1,4.2-1.4,7.7-1.4,10.6
					c0,10.1,5.4,15.2,16.1,15.2c7,0,12.5-2.2,16.6-6.5c4.1-4.3,7-10.8,8.9-19.5l16.5-78.1H268.6z"/>
				<path class="st16" d="M271.5,128.1L297.8,3.6h26.1L302,106.3h43.6l-4.6,21.8H271.5z"/>
				<path class="st16" d="M361.8,128.1L388.1,3.6h26.1l-21.8,102.7H436l-4.6,21.8H361.8z"/>
			</g>
		</g>
		<g>
			<defs>
				<polygon id="SVGID_16_" points="48.7,54.8 436,54.8 436,137.2 224.1,152.6 38.8,145.6 				"/>
			</defs>
			<clipPath id="SVGID_26_">
				<use xlink:href="#SVGID_16_"  style="overflow:visible;"/>
			</clipPath>
		</g>
	</g>
</g>
<g>
	<defs>
		<polygon id="SVGID_242_" points="30.2,54.8 506.9,54.8 506.9,-153.3 0,-153.3 		"/>
	</defs>
	<clipPath id="SVGID_30_">
		<use xlink:href="#SVGID_242_"  style="overflow:visible;"/>
	</clipPath>
	<g class="st19">
		<path class="st10" d="M103.7,3.6c13,0,22.8,2.3,29.5,6.9c6.6,4.6,10,11.5,10,20.7c0,8.5-2.4,15.5-7.1,21.1
			c-4.7,5.5-11.4,9.2-20.1,11v0.5c5.7,1.5,10.2,4.2,13.6,8.2c3.4,4,5.1,9.1,5.1,15.4c0,13-4.3,23-13,30.1s-20.7,10.6-36,10.6H41.1
			L67.4,3.6H103.7z M71.7,106.3H87c6.6,0,11.8-1.6,15.6-4.9c3.8-3.3,5.7-7.9,5.7-13.7c0-9.2-5.2-13.8-15.6-13.8h-14L71.7,106.3z
			 M83,52.9h12.7c6.9,0,12-1.4,15.5-4.1c3.4-2.8,5.2-6.7,5.2-11.9c0-7.8-4.8-11.7-14.5-11.7H88.9L83,52.9z"/>
		<path class="st10" d="M266.8,3.6l-17.1,80.5c-3.2,15.1-9.4,26.5-18.6,34.1c-9.1,7.7-21,11.5-35.7,11.5c-12,0-21.5-3.2-28.4-9.7
			s-10.3-15.2-10.3-26.2c0-4.1,0.4-8,1.3-11.8l16.7-78.6h26l-16.5,78.2c-1,4.2-1.4,7.7-1.4,10.6c0,10.1,5.4,15.2,16.1,15.2
			c7,0,12.5-2.2,16.6-6.5s7-10.8,8.9-19.5l16.5-78.1H266.8z"/>
		<path class="st10" d="M269.7,128.1L296,3.6h26.1l-21.8,102.7h43.6l-4.6,21.8H269.7z"/>
		<path class="st10" d="M360.1,128.1L386.4,3.6h26.1l-21.8,102.7h43.6l-4.6,21.8H360.1z"/>
	</g>
</g>
<g>
	
		<image style="overflow:visible;opacity:0.2;" width="1237" height="702" xlink:href="352DBB3D7631C43A.png"  transform="matrix(0.4185 0 0 0.4185 3.2061 -156.942)">
	</image>
	<g>
		<g>
			<defs>
				<polygon id="SVGID_14_" points="37.2,54.8 513.8,54.8 513.8,-153.3 7,-153.3 				"/>
			</defs>
			<clipPath id="SVGID_32_">
				<use xlink:href="#SVGID_14_"  style="overflow:visible;"/>
			</clipPath>
		</g>
		<g>
			<defs>
				<polygon id="SVGID_12_" points="37.2,54.8 513.8,54.8 513.8,-153.3 7,-153.3 				"/>
			</defs>
			<clipPath id="SVGID_33_">
				<use xlink:href="#SVGID_12_"  style="overflow:visible;"/>
			</clipPath>
			<g class="st20">
				<path class="st16" d="M110.6,3.6c13,0,22.8,2.3,29.5,6.9s10,11.5,10,20.7c0,8.5-2.4,15.5-7.1,21.1c-4.7,5.5-11.4,9.2-20.1,11
					v0.5c5.7,1.5,10.2,4.2,13.6,8.2c3.4,4,5.1,9.1,5.1,15.4c0,13-4.3,23-13,30.1c-8.7,7-20.7,10.6-36,10.6H48.1L74.4,3.6H110.6z
					 M78.6,106.3H94c6.6,0,11.8-1.6,15.6-4.9c3.8-3.3,5.7-7.9,5.7-13.7c0-9.2-5.2-13.8-15.6-13.8h-14L78.6,106.3z M90,52.9h12.7
					c6.9,0,12-1.4,15.5-4.1c3.4-2.8,5.2-6.7,5.2-11.9c0-7.8-4.8-11.7-14.5-11.7H95.8L90,52.9z"/>
				<path class="st16" d="M273.8,3.6l-17.1,80.5c-3.2,15.1-9.4,26.5-18.6,34.1c-9.1,7.7-21,11.5-35.7,11.5c-12,0-21.5-3.2-28.4-9.7
					s-10.3-15.2-10.3-26.2c0-4.1,0.4-8,1.3-11.8l16.7-78.6h26l-16.5,78.2c-1,4.2-1.4,7.7-1.4,10.6c0,10.1,5.4,15.2,16.1,15.2
					c7,0,12.5-2.2,16.6-6.5c4.1-4.3,7-10.8,8.9-19.5l16.5-78.1H273.8z"/>
				<path class="st16" d="M276.7,128.1L303,3.6h26.1l-21.8,102.7h43.6l-4.6,21.8H276.7z"/>
				<path class="st16" d="M367,128.1L393.3,3.6h26.1l-21.8,102.7h43.6l-4.6,21.8H367z"/>
			</g>
		</g>
		<g>
			<defs>
				<polygon id="SVGID_10_" points="37.2,54.8 513.8,54.8 513.8,-153.3 7,-153.3 				"/>
			</defs>
			<clipPath id="SVGID_34_">
				<use xlink:href="#SVGID_10_"  style="overflow:visible;"/>
			</clipPath>
		</g>
	</g>
</g>
<g>
	<defs>
		<rect id="SVGID_247_" x="-10.5" y="184.5" width="515.6" height="138.9"/>
	</defs>
	<clipPath id="SVGID_38_">
		<use xlink:href="#SVGID_247_"  style="overflow:visible;"/>
	</clipPath>
	<g class="st21">
		<path class="st12" d="M85.2,265.7h-8.5l12.9-61.2H24.9l-12.7,61.2H3.4l26.4-124.5h8.7l-11.8,55.3h64.7l11.7-55.3h8.5L85.2,265.7z"
			/>
		<path class="st12" d="M179.6,221.4H136l-24.4,44.3h-10l70-125h5.7l17.1,125h-8.9L179.6,221.4z M178.6,213.5l-3.3-24.8
			c-1.8-13.7-2.9-25.1-3.3-34.2c-1.7,3.6-3.5,7.3-5.5,11.1c-2,3.8-10.7,19.8-26.1,47.9H178.6z"/>
		<path class="st12" d="M283,147.4c-11.2,0-21.2,3-29.9,8.9c-8.8,5.9-15.7,14.6-20.9,25.9c-5.1,11.4-7.7,23.9-7.7,37.5
			c0,12.8,3.1,22.6,9.4,29.5c6.3,6.9,15.3,10.3,27,10.3c7.9,0,16.6-1.4,25.9-4.3v8c-8.9,2.8-17.8,4.2-26.9,4.2
			c-14.3,0-25.3-4.1-32.9-12.3c-7.6-8.2-11.4-19.9-11.4-34.9c0-15.1,3-28.9,8.9-41.6c5.9-12.6,14-22.3,24.2-29
			c10.2-6.8,21.6-10.1,34.2-10.1c10,0,18.8,1.9,26.1,5.8l-3.8,7.7c-3.1-1.7-6.7-3-10.6-4C290.8,147.9,286.9,147.4,283,147.4z"/>
		<path class="st12" d="M384.1,265.7h-9.5l-29.1-67.1l-16.2,13l-11.2,54.1h-8.8l26.4-124.5h8.7l-13.5,61.6l11.3-10.3l57.9-51.3H412
			l-59.5,51.9L384.1,265.7z"/>
		<path class="st12" d="M472.5,231.3c0,7.2-1.9,13.5-5.6,19.1c-3.7,5.6-8.8,9.8-15.3,12.6c-6.5,2.8-14.1,4.3-22.9,4.3
			c-5,0-9.9-0.5-14.7-1.4c-4.8-1-9.7-2.6-14.6-4.9v-9.3c9.3,5.2,19.1,7.8,29.6,7.8c10.7,0,19.1-2.5,25.2-7.4
			c6.1-4.9,9.2-11.5,9.2-19.8c0-3.5-0.5-6.4-1.4-8.9c-1-2.5-2.5-4.7-4.5-6.7c-2-2-4.6-3.9-7.7-5.8c-3.2-1.9-6.9-4-11.2-6.4
			c-8.5-4.3-14.5-9-17.8-14c-3.4-5-5.1-10.8-5.1-17.5c0-6.7,1.7-12.6,5-17.7c3.3-5.1,8-9,14-11.8c6-2.8,12.7-4.2,20.2-4.2
			c5.6,0,10.7,0.5,15.3,1.5c4.6,1,9.4,2.7,14.3,5.2l-2.7,8c-3.7-2.3-8-4.1-12.9-5.4c-4.9-1.3-9.5-2-14-2c-9.3,0-16.6,2.3-22.1,7
			c-5.5,4.7-8.2,10.9-8.2,18.6c0,5.8,1.4,10.7,4.2,14.5c2.8,3.8,7.9,7.6,15.5,11.3c8.7,4.5,14.8,8.2,18.2,11.1
			c3.4,2.9,5.9,6.1,7.6,9.6C471.6,222.3,472.5,226.5,472.5,231.3z"/>
	</g>
</g>
<g>
	
		<image style="overflow:visible;opacity:0.2;" width="1259" height="467" xlink:href="352DBB3D7631C43D.png"  transform="matrix(0.4185 0 0 0.4185 -7.2567 135.5979)">
	</image>
	<g>
		<g>
			<defs>
				<rect id="SVGID_9_" x="-3.5" y="184.5" width="515.6" height="138.9"/>
			</defs>
			<clipPath id="SVGID_40_">
				<use xlink:href="#SVGID_9_"  style="overflow:visible;"/>
			</clipPath>
		</g>
		<g>
			<defs>
				<rect id="SVGID_8_" x="-3.5" y="184.5" width="515.6" height="138.9"/>
			</defs>
			<clipPath id="SVGID_41_">
				<use xlink:href="#SVGID_8_"  style="overflow:visible;"/>
			</clipPath>
			<g class="st22">
				<path class="st16" d="M92.2,265.7h-8.5l12.9-61.2H31.8l-12.7,61.2h-8.8l26.4-124.5h8.7l-11.8,55.3h64.7l11.7-55.3h8.5
					L92.2,265.7z"/>
				<path class="st16" d="M186.6,221.4H143l-24.4,44.3h-10l70-125h5.7l17.1,125h-8.9L186.6,221.4z M185.5,213.5l-3.3-24.8
					c-1.8-13.7-2.9-25.1-3.3-34.2c-1.7,3.6-3.5,7.3-5.5,11.1c-2,3.8-10.7,19.8-26.1,47.9H185.5z"/>
				<path class="st16" d="M290,147.4c-11.2,0-21.2,3-29.9,8.9c-8.8,5.9-15.7,14.6-20.9,25.9c-5.1,11.4-7.7,23.9-7.7,37.5
					c0,12.8,3.1,22.6,9.4,29.5c6.3,6.9,15.3,10.3,27,10.3c7.9,0,16.6-1.4,25.9-4.3v8c-8.9,2.8-17.8,4.2-26.9,4.2
					c-14.3,0-25.3-4.1-32.9-12.3c-7.6-8.2-11.4-19.9-11.4-34.9c0-15.1,3-28.9,8.9-41.6c5.9-12.6,14-22.3,24.2-29
					c10.2-6.8,21.6-10.1,34.2-10.1c10,0,18.8,1.9,26.1,5.8l-3.8,7.7c-3.1-1.7-6.7-3-10.6-4C297.8,147.9,293.9,147.4,290,147.4z"/>
				<path class="st16" d="M391.1,265.7h-9.5l-29.1-67.1l-16.2,13l-11.2,54.1h-8.8l26.4-124.5h8.7L338,202.7l11.3-10.3l57.9-51.3H419
					l-59.5,51.9L391.1,265.7z"/>
				<path class="st16" d="M479.5,231.3c0,7.2-1.9,13.5-5.6,19.1c-3.7,5.6-8.8,9.8-15.3,12.6c-6.5,2.8-14.1,4.3-22.9,4.3
					c-5,0-9.9-0.5-14.7-1.4c-4.8-1-9.7-2.6-14.6-4.9v-9.3c9.3,5.2,19.1,7.8,29.6,7.8c10.7,0,19.1-2.5,25.2-7.4
					c6.1-4.9,9.2-11.5,9.2-19.8c0-3.5-0.5-6.4-1.4-8.9c-1-2.5-2.5-4.7-4.5-6.7c-2-2-4.6-3.9-7.7-5.8c-3.2-1.9-6.9-4-11.2-6.4
					c-8.5-4.3-14.5-9-17.8-14c-3.4-5-5.1-10.8-5.1-17.5c0-6.7,1.7-12.6,5-17.7c3.3-5.1,8-9,14-11.8c6-2.8,12.7-4.2,20.2-4.2
					c5.6,0,10.7,0.5,15.3,1.5c4.6,1,9.4,2.7,14.3,5.2l-2.7,8c-3.7-2.3-8-4.1-12.9-5.4c-4.9-1.3-9.5-2-14-2c-9.3,0-16.6,2.3-22.1,7
					c-5.5,4.7-8.2,10.9-8.2,18.6c0,5.8,1.4,10.7,4.2,14.5c2.8,3.8,7.9,7.6,15.5,11.3c8.7,4.5,14.8,8.2,18.2,11.1
					c3.4,2.9,5.9,6.1,7.6,9.6C478.6,222.3,479.5,226.5,479.5,231.3z"/>
			</g>
		</g>
		<g>
			<defs>
				<rect id="SVGID_6_" x="-3.5" y="184.5" width="515.6" height="138.9"/>
			</defs>
			<clipPath id="SVGID_42_">
				<use xlink:href="#SVGID_6_"  style="overflow:visible;"/>
			</clipPath>
		</g>
	</g>
</g>
<g>
	<defs>
		<rect id="SVGID_252_" x="-7" y="45.6" width="515.6" height="138.9"/>
	</defs>
	<clipPath id="SVGID_46_">
		<use xlink:href="#SVGID_252_"  style="overflow:visible;"/>
	</clipPath>
	<g class="st23">
		<path class="st12" d="M88.7,265.7h-8.5l12.9-61.2H28.4l-12.7,61.2H6.9l26.4-124.5H42l-11.8,55.3h64.7l11.7-55.3h8.5L88.7,265.7z"
			/>
		<path class="st12" d="M183.1,221.4h-43.6L115,265.7h-10l70-125h5.7l17.1,125h-8.9L183.1,221.4z M182,213.5l-3.3-24.8
			c-1.8-13.7-2.9-25.1-3.3-34.2c-1.7,3.6-3.5,7.3-5.5,11.1c-2,3.8-10.7,19.8-26.1,47.9H182z"/>
		<path class="st12" d="M286.5,147.4c-11.2,0-21.2,3-29.9,8.9c-8.8,5.9-15.7,14.6-20.9,25.9c-5.1,11.4-7.7,23.9-7.7,37.5
			c0,12.8,3.1,22.6,9.4,29.5c6.3,6.9,15.3,10.3,27,10.3c7.9,0,16.6-1.4,25.9-4.3v8c-8.9,2.8-17.8,4.2-26.9,4.2
			c-14.3,0-25.3-4.1-32.9-12.3c-7.6-8.2-11.4-19.9-11.4-34.9c0-15.1,3-28.9,8.9-41.6c5.9-12.6,14-22.3,24.2-29
			c10.2-6.8,21.6-10.1,34.2-10.1c10,0,18.8,1.9,26.1,5.8l-3.8,7.7c-3.1-1.7-6.7-3-10.6-4C294.3,147.9,290.4,147.4,286.5,147.4z"/>
		<path class="st12" d="M387.6,265.7h-9.5L349,198.6l-16.2,13l-11.2,54.1h-8.8l26.4-124.5h8.7l-13.5,61.6l11.3-10.3l57.9-51.3h11.8
			L356,193.1L387.6,265.7z"/>
		<path class="st12" d="M476,231.3c0,7.2-1.9,13.5-5.6,19.1c-3.7,5.6-8.8,9.8-15.3,12.6c-6.5,2.8-14.1,4.3-22.9,4.3
			c-5,0-9.9-0.5-14.7-1.4c-4.8-1-9.7-2.6-14.6-4.9v-9.3c9.3,5.2,19.1,7.8,29.6,7.8c10.7,0,19.1-2.5,25.2-7.4
			c6.1-4.9,9.2-11.5,9.2-19.8c0-3.5-0.5-6.4-1.4-8.9c-1-2.5-2.5-4.7-4.5-6.7c-2-2-4.6-3.9-7.7-5.8c-3.2-1.9-6.9-4-11.2-6.4
			c-8.5-4.3-14.5-9-17.8-14c-3.4-5-5.1-10.8-5.1-17.5c0-6.7,1.7-12.6,5-17.7c3.3-5.1,8-9,14-11.8c6-2.8,12.7-4.2,20.2-4.2
			c5.6,0,10.7,0.5,15.3,1.5c4.6,1,9.4,2.7,14.3,5.2l-2.7,8c-3.7-2.3-8-4.1-12.9-5.4c-4.9-1.3-9.5-2-14-2c-9.3,0-16.6,2.3-22.1,7
			c-5.5,4.7-8.2,10.9-8.2,18.6c0,5.8,1.4,10.7,4.2,14.5c2.8,3.8,7.9,7.6,15.5,11.3c8.7,4.5,14.8,8.2,18.2,11.1
			c3.4,2.9,5.9,6.1,7.6,9.6C475.1,222.3,476,226.5,476,231.3z"/>
	</g>
</g>
<g>
	
		<image style="overflow:visible;opacity:0.2;" width="1258" height="557" xlink:href="352DBB3D7631C43E.png"  transform="matrix(0.4185 0 0 0.4185 -3.4901 41.8512)">
	</image>
	<g>
		<g>
			<defs>
				<rect id="SVGID_4_" y="45.6" width="515.6" height="138.9"/>
			</defs>
			<clipPath id="SVGID_48_">
				<use xlink:href="#SVGID_4_"  style="overflow:visible;"/>
			</clipPath>
		</g>
		<g>
			<defs>
				<rect id="SVGID_2_" y="45.6" width="515.6" height="138.9"/>
			</defs>
			<clipPath id="SVGID_49_">
				<use xlink:href="#SVGID_2_"  style="overflow:visible;"/>
			</clipPath>
			<g class="st24">
				<path class="st16" d="M95.7,265.7h-8.5l12.9-61.2H35.3l-12.7,61.2h-8.8l26.4-124.5H49l-11.8,55.3h64.7l11.7-55.3h8.5L95.7,265.7
					z"/>
				<path class="st16" d="M190,221.4h-43.6L122,265.7h-10l70-125h5.7l17.1,125h-8.9L190,221.4z M189,213.5l-3.3-24.8
					c-1.8-13.7-2.9-25.1-3.3-34.2c-1.7,3.6-3.5,7.3-5.5,11.1c-2,3.8-10.7,19.8-26.1,47.9H189z"/>
				<path class="st16" d="M293.5,147.4c-11.2,0-21.2,3-29.9,8.9c-8.8,5.9-15.7,14.6-20.9,25.9c-5.1,11.4-7.7,23.9-7.7,37.5
					c0,12.8,3.1,22.6,9.4,29.5c6.3,6.9,15.3,10.3,27,10.3c7.9,0,16.6-1.4,25.9-4.3v8c-8.9,2.8-17.8,4.2-26.9,4.2
					c-14.3,0-25.3-4.1-32.9-12.3c-7.6-8.2-11.4-19.9-11.4-34.9c0-15.1,3-28.9,8.9-41.6c5.9-12.6,14-22.3,24.2-29
					c10.2-6.8,21.6-10.1,34.2-10.1c10,0,18.8,1.9,26.1,5.8l-3.8,7.7c-3.1-1.7-6.7-3-10.6-4C301.3,147.9,297.4,147.4,293.5,147.4z"/>
				<path class="st16" d="M394.6,265.7h-9.5L356,198.6l-16.2,13l-11.2,54.1h-8.8l26.4-124.5h8.7l-13.5,61.6l11.3-10.3l57.9-51.3
					h11.8L363,193.1L394.6,265.7z"/>
				<path class="st16" d="M482.9,231.3c0,7.2-1.9,13.5-5.6,19.1c-3.7,5.6-8.8,9.8-15.3,12.6c-6.5,2.8-14.1,4.3-22.9,4.3
					c-5,0-9.9-0.5-14.7-1.4c-4.8-1-9.7-2.6-14.6-4.9v-9.3c9.3,5.2,19.1,7.8,29.6,7.8c10.7,0,19.1-2.5,25.2-7.4
					c6.1-4.9,9.2-11.5,9.2-19.8c0-3.5-0.5-6.4-1.4-8.9c-1-2.5-2.5-4.7-4.5-6.7c-2-2-4.6-3.9-7.7-5.8c-3.2-1.9-6.9-4-11.2-6.4
					c-8.5-4.3-14.5-9-17.8-14c-3.4-5-5.1-10.8-5.1-17.5c0-6.7,1.7-12.6,5-17.7c3.3-5.1,8-9,14-11.8c6-2.8,12.7-4.2,20.2-4.2
					c5.6,0,10.7,0.5,15.3,1.5c4.6,1,9.4,2.7,14.3,5.2l-2.7,8c-3.7-2.3-8-4.1-12.9-5.4c-4.9-1.3-9.5-2-14-2c-9.3,0-16.6,2.3-22.1,7
					c-5.5,4.7-8.2,10.9-8.2,18.6c0,5.8,1.4,10.7,4.2,14.5c2.8,3.8,7.9,7.6,15.5,11.3c8.7,4.5,14.8,8.2,18.2,11.1
					c3.4,2.9,5.9,6.1,7.6,9.6C482.1,222.3,482.9,226.5,482.9,231.3z"/>
			</g>
		</g>
		<g>
			<defs>
				<rect id="SVGID_1_" y="45.6" width="515.6" height="138.9"/>
			</defs>
			<clipPath id="SVGID_50_">
				<use xlink:href="#SVGID_1_"  style="overflow:visible;"/>
			</clipPath>
		</g>
	</g>
</g>
</svg>
