<?xml version="1.0" encoding="utf-8"?>
<!-- Generator: Adobe Illustrator 21.0.2, SVG Export Plug-In . SVG Version: 6.00 Build 0)  -->
<svg version="1.1" id="Layer_1" xmlns="http://www.w3.org/2000/svg" xmlns:xlink="http://www.w3.org/1999/xlink" x="0px" y="0px"
	 viewBox="0 0 507.8 212.6" style="enable-background:new 0 0 507.8 212.6;" xml:space="preserve">
<style type="text/css">
	.st0{fill:#212121;}
	.st1{display:none;}
	.st2{fill:none;stroke:#FFFFFF;stroke-width:2;stroke-linecap:round;stroke-miterlimit:10;}
	.st3{fill:none;stroke:#E43926;stroke-width:2;stroke-miterlimit:10;}
	.st4{fill:none;stroke:#E6C51F;stroke-width:2;stroke-miterlimit:10;}
	.st5{fill:none;stroke:#E63727;stroke-width:2;stroke-miterlimit:10;}
	.st6{fill:none;stroke:#465EAB;stroke-width:2;stroke-miterlimit:10;}
	.st7{fill:none;stroke:#FFFFFF;stroke-width:2;stroke-miterlimit:10;}
	.st8{fill:none;stroke:#E7C51E;stroke-width:2;stroke-miterlimit:10;}
	.st9{fill:#FFFFFF;}
	.st10{fill:#E7C51E;}
	.st11{fill:#E43926;}
	.st12{fill:#465EAB;}
	.st13{fill:none;stroke:#E7C51E;stroke-width:6;stroke-miterlimit:10;}
	.st14{fill:none;stroke:#E43926;stroke-width:6;stroke-miterlimit:10;}
	.st15{fill:none;stroke:#465EAB;stroke-width:6;stroke-miterlimit:10;}
	.st16{fill:#1E1E1E;}
	.st17{clip-path:url(#SVGID_22_);}
	.st18{clip-path:url(#SVGID_25_);}
	.st19{clip-path:url(#SVGID_30_);}
	.st20{clip-path:url(#SVGID_33_);}
	.st21{clip-path:url(#SVGID_38_);}
	.st22{clip-path:url(#SVGID_41_);}
	.st23{clip-path:url(#SVGID_46_);}
	.st24{clip-path:url(#SVGID_49_);}
	.st25{clip-path:url(#SVGID_54_);}
	.st26{clip-path:url(#SVGID_57_);}
	.st27{clip-path:url(#SVGID_62_);}
	.st28{clip-path:url(#SVGID_65_);}
	.st29{clip-path:url(#SVGID_70_);}
	.st30{clip-path:url(#SVGID_73_);}
	.st31{clip-path:url(#SVGID_78_);}
	.st32{clip-path:url(#SVGID_81_);}
	.st33{clip-path:url(#SVGID_86_);}
	.st34{clip-path:url(#SVGID_89_);}
	.st35{clip-path:url(#SVGID_94_);}
	.st36{clip-path:url(#SVGID_97_);}
	.st37{clip-path:url(#SVGID_102_);}
	.st38{clip-path:url(#SVGID_105_);}
	.st39{clip-path:url(#SVGID_110_);}
	.st40{fill:none;stroke:#465EAB;stroke-width:5;stroke-miterlimit:10;}
	.st41{fill:none;stroke:#E7C51E;stroke-width:4;stroke-miterlimit:10;}
	.st42{clip-path:url(#SVGID_113_);}
	.st43{fill:none;stroke:#E43926;stroke-width:5;stroke-miterlimit:10;}
	.st44{fill:none;stroke:#212121;stroke-width:4;stroke-miterlimit:10;}
	.st45{clip-path:url(#SVGID_118_);}
	.st46{clip-path:url(#SVGID_121_);}
	.st47{clip-path:url(#SVGID_126_);}
	.st48{clip-path:url(#SVGID_129_);}
	.st49{clip-path:url(#SVGID_134_);}
	.st50{clip-path:url(#SVGID_137_);}
	.st51{clip-path:url(#SVGID_142_);}
	.st52{clip-path:url(#SVGID_145_);}
	.st53{opacity:0.94;fill:#E7C51E;}
	.st54{clip-path:url(#SVGID_150_);}
	.st55{clip-path:url(#SVGID_153_);}
	.st56{clip-path:url(#SVGID_158_);}
	.st57{clip-path:url(#SVGID_161_);}
	.st58{clip-path:url(#SVGID_166_);}
	.st59{clip-path:url(#SVGID_169_);}
	.st60{clip-path:url(#SVGID_174_);}
	.st61{clip-path:url(#SVGID_177_);}
	.st62{clip-path:url(#SVGID_182_);}
	.st63{clip-path:url(#SVGID_185_);}
	.st64{clip-path:url(#SVGID_190_);}
	.st65{clip-path:url(#SVGID_193_);}
	.st66{clip-path:url(#SVGID_198_);}
	.st67{clip-path:url(#SVGID_201_);}
	.st68{clip-path:url(#SVGID_206_);}
	.st69{clip-path:url(#SVGID_209_);}
	.st70{clip-path:url(#SVGID_214_);}
	.st71{clip-path:url(#SVGID_217_);}
	.st72{clip-path:url(#SVGID_222_);}
	.st73{clip-path:url(#SVGID_225_);}
	.st74{clip-path:url(#SVGID_228_);}
	.st75{fill:#465EAB;stroke:#465EAB;stroke-miterlimit:10;}
	.st76{clip-path:url(#SVGID_230_);}
	.st77{clip-path:url(#SVGID_233_);}
	.st78{clip-path:url(#SVGID_235_);}
	.st79{clip-path:url(#SVGID_238_);}
	.st80{clip-path:url(#SVGID_240_);}
	.st81{clip-path:url(#SVGID_243_);}
	.st82{clip-path:url(#SVGID_245_);}
	.st83{clip-path:url(#SVGID_248_);}
	.st84{clip-path:url(#SVGID_250_);}
	.st85{clip-path:url(#SVGID_253_);}
	.st86{clip-path:url(#SVGID_255_);}
	.st87{opacity:0.94;fill:#E7C51E;stroke:#E7C51E;stroke-width:11;stroke-miterlimit:10;}
	.st88{fill:#465EAB;stroke:#465EAB;stroke-width:8;stroke-miterlimit:10;}
	.st89{fill:#E43926;stroke:#E43B27;stroke-width:7;stroke-miterlimit:10;}
	.st90{fill:none;stroke:#020202;stroke-width:4;stroke-miterlimit:10;}
	.st91{fill:none;stroke:#465EAB;stroke-width:15;stroke-linecap:round;stroke-miterlimit:10;}
	.st92{fill:none;stroke:#E7C825;stroke-width:15;stroke-linecap:round;stroke-miterlimit:10;}
	.st93{fill:none;stroke:#E43926;stroke-width:15;stroke-linecap:round;stroke-miterlimit:10;}
	.st94{fill:#224387;}
	.st95{fill:#9B2320;}
	.st96{fill:#AC9030;}
	.st97{fill:#E7C825;}
	.st98{fill:#E7C822;}
	.st99{fill:#E43B27;}
	.st100{fill:#2D2D2D;}
	.st101{fill:#475FAB;}
	.st102{fill:#E7C823;}
	.st103{fill:#E7C820;}
	.st104{fill:#E33C27;}
	.st105{fill:#E33E28;}
	.st106{fill:#2D2E2D;}
	.st107{fill:#E6C622;}
	.st108{fill:#EA473B;}
	.st109{fill:#333333;}
	.st110{fill:#F4F4F5;}
</style>
<g>
	<defs>
		<polygon id="SVGID_212_" points="248.8,67.6 470.9,67.6 470.9,114.9 349.4,123.7 243.1,119.7 		"/>
	</defs>
	<clipPath id="SVGID_22_">
		<use xlink:href="#SVGID_212_"  style="overflow:visible;"/>
	</clipPath>
	<g class="st17">
		<path class="st11" d="M281.3,38.2c7.5,0,13.1,1.3,16.9,4s5.7,6.6,5.7,11.9c0,4.9-1.4,8.9-4.1,12.1c-2.7,3.2-6.5,5.3-11.5,6.3v0.3
			c3.3,0.8,5.9,2.4,7.8,4.7c1.9,2.3,2.9,5.2,2.9,8.8c0,7.5-2.5,13.2-7.5,17.2s-11.9,6.1-20.7,6.1h-25.5l15.1-71.4H281.3z M263,97.1
			h8.8c3.8,0,6.8-0.9,9-2.8c2.2-1.9,3.2-4.5,3.2-7.9c0-5.3-3-7.9-8.9-7.9H267L263,97.1z M269.5,66.5h7.3c3.9,0,6.9-0.8,8.9-2.4
			c2-1.6,3-3.8,3-6.8c0-4.5-2.8-6.7-8.3-6.7h-7.4L269.5,66.5z"/>
		<path class="st11" d="M374.9,38.2l-9.8,46.2c-1.9,8.7-5.4,15.2-10.6,19.6c-5.2,4.4-12.1,6.6-20.5,6.6c-6.9,0-12.3-1.8-16.3-5.5
			s-5.9-8.7-5.9-15c0-2.3,0.2-4.6,0.7-6.7l9.6-45.1h14.9l-9.5,44.9c-0.6,2.4-0.8,4.4-0.8,6.1c0,5.8,3.1,8.7,9.2,8.7
			c4,0,7.2-1.2,9.5-3.7s4-6.2,5.1-11.2l9.5-44.8H374.9z"/>
		<path class="st11" d="M376.5,109.6l15.1-71.4h14.9l-12.5,58.9h25l-2.6,12.5H376.5z"/>
		<path class="st11" d="M428.4,109.6l15.1-71.4h14.9l-12.5,58.9h25l-2.6,12.5H428.4z"/>
	</g>
</g>
<g>
	
		<image style="overflow:visible;opacity:0.2;" width="976" height="383" xlink:href="9623B71B19F4DE63.png"  transform="matrix(0.24 0 0 0.24 244.9541 36.0754)">
	</image>
	<g>
		<g>
			<defs>
				<polygon id="SVGID_195_" points="252.8,67.6 474.9,67.6 474.9,114.9 353.4,123.7 247.1,119.7 				"/>
			</defs>
			<clipPath id="SVGID_24_">
				<use xlink:href="#SVGID_195_"  style="overflow:visible;"/>
			</clipPath>
		</g>
		<g>
			<defs>
				<polygon id="SVGID_197_" points="252.8,67.6 474.9,67.6 474.9,114.9 353.4,123.7 247.1,119.7 				"/>
			</defs>
			<clipPath id="SVGID_25_">
				<use xlink:href="#SVGID_197_"  style="overflow:visible;"/>
			</clipPath>
			<g class="st18">
				<path class="st16" d="M285.3,38.2c7.5,0,13.1,1.3,16.9,4s5.7,6.6,5.7,11.9c0,4.9-1.4,8.9-4.1,12.1c-2.7,3.2-6.5,5.3-11.5,6.3
					v0.3c3.3,0.8,5.9,2.4,7.8,4.7c1.9,2.3,2.9,5.2,2.9,8.8c0,7.5-2.5,13.2-7.5,17.2s-11.9,6.1-20.7,6.1h-25.5l15.1-71.4H285.3z
					 M267,97.1h8.8c3.8,0,6.8-0.9,9-2.8c2.2-1.9,3.2-4.5,3.2-7.9c0-5.3-3-7.9-8.9-7.9H271L267,97.1z M273.5,66.5h7.3
					c3.9,0,6.9-0.8,8.9-2.4c2-1.6,3-3.8,3-6.8c0-4.5-2.8-6.7-8.3-6.7h-7.4L273.5,66.5z"/>
				<path class="st16" d="M378.9,38.2l-9.8,46.2c-1.9,8.7-5.4,15.2-10.6,19.6c-5.2,4.4-12.1,6.6-20.5,6.6c-6.9,0-12.3-1.8-16.3-5.5
					s-5.9-8.7-5.9-15c0-2.3,0.2-4.6,0.7-6.7l9.6-45.1h14.9l-9.5,44.9c-0.6,2.4-0.8,4.4-0.8,6.1c0,5.8,3.1,8.7,9.2,8.7
					c4,0,7.2-1.2,9.5-3.7s4-6.2,5.1-11.2l9.5-44.8H378.9z"/>
				<path class="st16" d="M380.5,109.6l15.1-71.4h14.9l-12.5,58.9h25l-2.6,12.5H380.5z"/>
				<path class="st16" d="M432.4,109.6l15.1-71.4h14.9l-12.5,58.9h25l-2.6,12.5H432.4z"/>
			</g>
		</g>
		<g>
			<defs>
				<polygon id="SVGID_199_" points="252.8,67.6 474.9,67.6 474.9,114.9 353.4,123.7 247.1,119.7 				"/>
			</defs>
			<clipPath id="SVGID_26_">
				<use xlink:href="#SVGID_199_"  style="overflow:visible;"/>
			</clipPath>
		</g>
	</g>
</g>
<g>
	<defs>
		<polygon id="SVGID_220_" points="242.2,67.6 515.5,67.6 515.5,-51.7 224.9,-51.7 		"/>
	</defs>
	<clipPath id="SVGID_30_">
		<use xlink:href="#SVGID_220_"  style="overflow:visible;"/>
	</clipPath>
	<g class="st19">
		<path class="st10" d="M284.3,38.2c7.5,0,13.1,1.3,16.9,4s5.7,6.6,5.7,11.9c0,4.9-1.4,8.9-4.1,12.1c-2.7,3.2-6.5,5.3-11.5,6.3v0.3
			c3.3,0.8,5.9,2.4,7.8,4.7c1.9,2.3,2.9,5.2,2.9,8.8c0,7.5-2.5,13.2-7.5,17.2s-11.9,6.1-20.7,6.1h-25.5l15.1-71.4H284.3z M266,97.1
			h8.8c3.8,0,6.8-0.9,9-2.8c2.2-1.9,3.2-4.5,3.2-7.9c0-5.3-3-7.9-8.9-7.9H270L266,97.1z M272.5,66.5h7.3c3.9,0,6.9-0.8,8.9-2.4
			c2-1.6,3-3.8,3-6.8c0-4.5-2.8-6.7-8.3-6.7h-7.4L272.5,66.5z"/>
		<path class="st10" d="M377.9,38.2l-9.8,46.2c-1.9,8.7-5.4,15.2-10.6,19.6c-5.2,4.4-12.1,6.6-20.5,6.6c-6.9,0-12.3-1.8-16.3-5.5
			s-5.9-8.7-5.9-15c0-2.3,0.2-4.6,0.7-6.7l9.6-45.1h14.9l-9.5,44.9c-0.6,2.4-0.8,4.4-0.8,6.1c0,5.8,3.1,8.7,9.2,8.7
			c4,0,7.2-1.2,9.5-3.7s4-6.2,5.1-11.2l9.5-44.8H377.9z"/>
		<path class="st10" d="M379.5,109.6l15.1-71.4h14.9l-12.5,58.9h25l-2.6,12.5H379.5z"/>
		<path class="st10" d="M431.4,109.6l15.1-71.4h14.9l-12.5,58.9h25l-2.6,12.5H431.4z"/>
	</g>
</g>
<g>
	
		<image style="overflow:visible;opacity:0.2;" width="1237" height="704" xlink:href="9623B71B19F4DE61.png"  transform="matrix(0.24 0 0 0.24 226.7142 -53.9246)">
	</image>
	<g>
		<g>
			<defs>
				<polygon id="SVGID_203_" points="246.2,67.6 519.5,67.6 519.5,-51.7 228.9,-51.7 				"/>
			</defs>
			<clipPath id="SVGID_32_">
				<use xlink:href="#SVGID_203_"  style="overflow:visible;"/>
			</clipPath>
		</g>
		<g>
			<defs>
				<polygon id="SVGID_205_" points="246.2,67.6 519.5,67.6 519.5,-51.7 228.9,-51.7 				"/>
			</defs>
			<clipPath id="SVGID_33_">
				<use xlink:href="#SVGID_205_"  style="overflow:visible;"/>
			</clipPath>
			<g class="st20">
				<path class="st16" d="M288.3,38.2c7.5,0,13.1,1.3,16.9,4s5.7,6.6,5.7,11.9c0,4.9-1.4,8.9-4.1,12.1c-2.7,3.2-6.5,5.3-11.5,6.3
					v0.3c3.3,0.8,5.9,2.4,7.8,4.7c1.9,2.3,2.9,5.2,2.9,8.8c0,7.5-2.5,13.2-7.5,17.2s-11.9,6.1-20.7,6.1h-25.5l15.1-71.4H288.3z
					 M270,97.1h8.8c3.8,0,6.8-0.9,9-2.8c2.2-1.9,3.2-4.5,3.2-7.9c0-5.3-3-7.9-8.9-7.9H274L270,97.1z M276.5,66.5h7.3
					c3.9,0,6.9-0.8,8.9-2.4c2-1.6,3-3.8,3-6.8c0-4.5-2.8-6.7-8.3-6.7h-7.4L276.5,66.5z"/>
				<path class="st16" d="M381.9,38.2l-9.8,46.2c-1.9,8.7-5.4,15.2-10.6,19.6c-5.2,4.4-12.1,6.6-20.5,6.6c-6.9,0-12.3-1.8-16.3-5.5
					s-5.9-8.7-5.9-15c0-2.3,0.2-4.6,0.7-6.7l9.6-45.1h14.9l-9.5,44.9c-0.6,2.4-0.8,4.4-0.8,6.1c0,5.8,3.1,8.7,9.2,8.7
					c4,0,7.2-1.2,9.5-3.7s4-6.2,5.1-11.2l9.5-44.8H381.9z"/>
				<path class="st16" d="M383.5,109.6l15.1-71.4h14.9l-12.5,58.9h25l-2.6,12.5H383.5z"/>
				<path class="st16" d="M435.4,109.6l15.1-71.4h14.9l-12.5,58.9h25l-2.6,12.5H435.4z"/>
			</g>
		</g>
		<g>
			<defs>
				<polygon id="SVGID_207_" points="246.2,67.6 519.5,67.6 519.5,-51.7 228.9,-51.7 				"/>
			</defs>
			<clipPath id="SVGID_34_">
				<use xlink:href="#SVGID_207_"  style="overflow:visible;"/>
			</clipPath>
		</g>
	</g>
</g>
<g>
	<defs>
		<rect id="SVGID_227_" x="218.9" y="142" width="295.7" height="79.6"/>
	</defs>
	<clipPath id="SVGID_38_">
		<use xlink:href="#SVGID_227_"  style="overflow:visible;"/>
	</clipPath>
	<g class="st21">
		<path class="st75" d="M273.8,188.5h-4.9l7.4-35.1h-37.1l-7.3,35.1h-5l15.1-71.4h5l-6.8,31.7h37.1l6.7-31.7h4.9L273.8,188.5z"/>
		<path class="st75" d="M327.9,163.1h-25l-14,25.4h-5.7l40.1-71.7h3.3l9.8,71.7h-5.1L327.9,163.1z M327.3,158.6l-1.9-14.2
			c-1-7.9-1.6-14.4-1.9-19.6c-1,2.1-2,4.2-3.1,6.3c-1.1,2.2-6.1,11.3-15,27.5H327.3z"/>
		<path class="st75" d="M387.2,120.7c-6.4,0-12.1,1.7-17.2,5.1c-5,3.4-9,8.4-12,14.9c-2.9,6.5-4.4,13.7-4.4,21.5
			c0,7.3,1.8,13,5.4,16.9c3.6,3.9,8.8,5.9,15.5,5.9c4.6,0,9.5-0.8,14.8-2.5v4.6c-5.1,1.6-10.2,2.4-15.4,2.4
			c-8.2,0-14.5-2.4-18.8-7.1c-4.4-4.7-6.5-11.4-6.5-20c0-8.7,1.7-16.6,5.1-23.8c3.4-7.2,8-12.8,13.9-16.7c5.9-3.9,12.4-5.8,19.6-5.8
			c5.8,0,10.8,1.1,15,3.3l-2.2,4.4c-1.8-1-3.8-1.7-6.1-2.3C391.6,121,389.4,120.7,387.2,120.7z"/>
		<path class="st75" d="M445.1,188.5h-5.4L423,150l-9.3,7.5l-6.4,31h-5l15.1-71.4h5l-7.7,35.3l6.5-5.9l33.2-29.4h6.7L427,146.9
			L445.1,188.5z"/>
		<path class="st75" d="M495.8,168.8c0,4.1-1.1,7.8-3.2,11c-2.1,3.2-5.1,5.6-8.8,7.3c-3.7,1.6-8.1,2.4-13.1,2.4
			c-2.9,0-5.7-0.3-8.4-0.8c-2.8-0.6-5.5-1.5-8.4-2.8v-5.3c5.3,3,11,4.5,17,4.5c6.1,0,10.9-1.4,14.4-4.2c3.5-2.8,5.2-6.6,5.2-11.4
			c0-2-0.3-3.7-0.8-5.1c-0.6-1.4-1.4-2.7-2.6-3.8c-1.2-1.1-2.6-2.2-4.4-3.3s-3.9-2.3-6.4-3.7c-4.9-2.5-8.3-5.1-10.2-8
			c-1.9-2.9-2.9-6.2-2.9-10.1c0-3.8,1-7.2,2.9-10.1c1.9-2.9,4.6-5.2,8.1-6.8c3.5-1.6,7.3-2.4,11.6-2.4c3.2,0,6.2,0.3,8.8,0.9
			c2.6,0.6,5.4,1.6,8.2,3l-1.6,4.6c-2.1-1.3-4.6-2.3-7.4-3.1c-2.8-0.7-5.5-1.1-8-1.1c-5.3,0-9.5,1.3-12.7,4
			c-3.1,2.7-4.7,6.2-4.7,10.7c0,3.4,0.8,6.1,2.4,8.3c1.6,2.2,4.6,4.3,8.9,6.5c5,2.6,8.5,4.7,10.4,6.3c1.9,1.7,3.4,3.5,4.3,5.5
			C495.3,163.7,495.8,166.1,495.8,168.8z"/>
	</g>
</g>
<g>
	
		<image style="overflow:visible;opacity:0.2;" width="1259" height="466" xlink:href="9623B71B19F4DE67.png"  transform="matrix(0.24 0 0 0.24 220.7142 114.0753)">
	</image>
	<g>
		<g>
			<defs>
				<rect id="SVGID_211_" x="222.9" y="142" width="295.7" height="79.6"/>
			</defs>
			<clipPath id="SVGID_40_">
				<use xlink:href="#SVGID_211_"  style="overflow:visible;"/>
			</clipPath>
		</g>
		<g>
			<defs>
				<rect id="SVGID_213_" x="222.9" y="142" width="295.7" height="79.6"/>
			</defs>
			<clipPath id="SVGID_41_">
				<use xlink:href="#SVGID_213_"  style="overflow:visible;"/>
			</clipPath>
			<g class="st22">
				<path class="st16" d="M277.8,188.5h-4.9l7.4-35.1h-37.1l-7.3,35.1h-5l15.1-71.4h5l-6.8,31.7h37.1l6.7-31.7h4.9L277.8,188.5z"/>
				<path class="st16" d="M331.9,163.1h-25l-14,25.4h-5.7l40.1-71.7h3.3l9.8,71.7h-5.1L331.9,163.1z M331.3,158.6l-1.9-14.2
					c-1-7.9-1.6-14.4-1.9-19.6c-1,2.1-2,4.2-3.1,6.3c-1.1,2.2-6.1,11.3-15,27.5H331.3z"/>
				<path class="st16" d="M391.2,120.7c-6.4,0-12.1,1.7-17.2,5.1c-5,3.4-9,8.4-12,14.9c-2.9,6.5-4.4,13.7-4.4,21.5
					c0,7.3,1.8,13,5.4,16.9c3.6,3.9,8.8,5.9,15.5,5.9c4.6,0,9.5-0.8,14.8-2.5v4.6c-5.1,1.6-10.2,2.4-15.4,2.4
					c-8.2,0-14.5-2.4-18.8-7.1c-4.4-4.7-6.5-11.4-6.5-20c0-8.7,1.7-16.6,5.1-23.8c3.4-7.2,8-12.8,13.9-16.7
					c5.9-3.9,12.4-5.8,19.6-5.8c5.8,0,10.8,1.1,15,3.3l-2.2,4.4c-1.8-1-3.8-1.7-6.1-2.3C395.6,121,393.4,120.7,391.2,120.7z"/>
				<path class="st16" d="M449.1,188.5h-5.4L427,150l-9.3,7.5l-6.4,31h-5l15.1-71.4h5l-7.7,35.3l6.5-5.9l33.2-29.4h6.7L431,146.9
					L449.1,188.5z"/>
				<path class="st16" d="M499.8,168.8c0,4.1-1.1,7.8-3.2,11c-2.1,3.2-5.1,5.6-8.8,7.3c-3.7,1.6-8.1,2.4-13.1,2.4
					c-2.9,0-5.7-0.3-8.4-0.8c-2.8-0.6-5.5-1.5-8.4-2.8v-5.3c5.3,3,11,4.5,17,4.5c6.1,0,10.9-1.4,14.4-4.2c3.5-2.8,5.2-6.6,5.2-11.4
					c0-2-0.3-3.7-0.8-5.1c-0.6-1.4-1.4-2.7-2.6-3.8c-1.2-1.1-2.6-2.2-4.4-3.3s-3.9-2.3-6.4-3.7c-4.9-2.5-8.3-5.1-10.2-8
					c-1.9-2.9-2.9-6.2-2.9-10.1c0-3.8,1-7.2,2.9-10.1c1.9-2.9,4.6-5.2,8.1-6.8c3.5-1.6,7.3-2.4,11.6-2.4c3.2,0,6.2,0.3,8.8,0.9
					c2.6,0.6,5.4,1.6,8.2,3l-1.6,4.6c-2.1-1.3-4.6-2.3-7.4-3.1c-2.8-0.7-5.5-1.1-8-1.1c-5.3,0-9.5,1.3-12.7,4
					c-3.1,2.7-4.7,6.2-4.7,10.7c0,3.4,0.8,6.1,2.4,8.3c1.6,2.2,4.6,4.3,8.9,6.5c5,2.6,8.5,4.7,10.4,6.3c1.9,1.7,3.4,3.5,4.3,5.5
					C499.3,163.7,499.8,166.1,499.8,168.8z"/>
			</g>
		</g>
		<g>
			<defs>
				<rect id="SVGID_215_" x="222.9" y="142" width="295.7" height="79.6"/>
			</defs>
			<clipPath id="SVGID_42_">
				<use xlink:href="#SVGID_215_"  style="overflow:visible;"/>
			</clipPath>
		</g>
	</g>
</g>
<g>
	<defs>
		<rect id="SVGID_232_" x="220.9" y="62.3" width="295.7" height="79.6"/>
	</defs>
	<clipPath id="SVGID_46_">
		<use xlink:href="#SVGID_232_"  style="overflow:visible;"/>
	</clipPath>
	<g class="st23">
		<path class="st12" d="M275.8,188.5h-4.9l7.4-35.1h-37.1l-7.3,35.1h-5l15.1-71.4h5l-6.8,31.7h37.1l6.7-31.7h4.9L275.8,188.5z"/>
		<path class="st12" d="M329.9,163.1h-25l-14,25.4h-5.7l40.1-71.7h3.3l9.8,71.7h-5.1L329.9,163.1z M329.3,158.6l-1.9-14.2
			c-1-7.9-1.6-14.4-1.9-19.6c-1,2.1-2,4.2-3.1,6.3c-1.1,2.2-6.1,11.3-15,27.5H329.3z"/>
		<path class="st12" d="M389.2,120.7c-6.4,0-12.1,1.7-17.2,5.1c-5,3.4-9,8.4-12,14.9c-2.9,6.5-4.4,13.7-4.4,21.5
			c0,7.3,1.8,13,5.4,16.9c3.6,3.9,8.8,5.9,15.5,5.9c4.6,0,9.5-0.8,14.8-2.5v4.6c-5.1,1.6-10.2,2.4-15.4,2.4
			c-8.2,0-14.5-2.4-18.8-7.1c-4.4-4.7-6.5-11.4-6.5-20c0-8.7,1.7-16.6,5.1-23.8c3.4-7.2,8-12.8,13.9-16.7c5.9-3.9,12.4-5.8,19.6-5.8
			c5.8,0,10.8,1.1,15,3.3l-2.2,4.4c-1.8-1-3.8-1.7-6.1-2.3C393.6,121,391.4,120.7,389.2,120.7z"/>
		<path class="st12" d="M447.1,188.5h-5.4L425,150l-9.3,7.5l-6.4,31h-5l15.1-71.4h5l-7.7,35.3l6.5-5.9l33.2-29.4h6.7L429,146.9
			L447.1,188.5z"/>
		<path class="st12" d="M497.8,168.8c0,4.1-1.1,7.8-3.2,11c-2.1,3.2-5.1,5.6-8.8,7.3c-3.7,1.6-8.1,2.4-13.1,2.4
			c-2.9,0-5.7-0.3-8.4-0.8c-2.8-0.6-5.5-1.5-8.4-2.8v-5.3c5.3,3,11,4.5,17,4.5c6.1,0,10.9-1.4,14.4-4.2c3.5-2.8,5.2-6.6,5.2-11.4
			c0-2-0.3-3.7-0.8-5.1c-0.6-1.4-1.4-2.7-2.6-3.8c-1.2-1.1-2.6-2.2-4.4-3.3s-3.9-2.3-6.4-3.7c-4.9-2.5-8.3-5.1-10.2-8
			c-1.9-2.9-2.9-6.2-2.9-10.1c0-3.8,1-7.2,2.9-10.1c1.9-2.9,4.6-5.2,8.1-6.8c3.5-1.6,7.3-2.4,11.6-2.4c3.2,0,6.2,0.3,8.8,0.9
			c2.6,0.6,5.4,1.6,8.2,3l-1.6,4.6c-2.1-1.3-4.6-2.3-7.4-3.1c-2.8-0.7-5.5-1.1-8-1.1c-5.3,0-9.5,1.3-12.7,4
			c-3.1,2.7-4.7,6.2-4.7,10.7c0,3.4,0.8,6.1,2.4,8.3c1.6,2.2,4.6,4.3,8.9,6.5c5,2.6,8.5,4.7,10.4,6.3c1.9,1.7,3.4,3.5,4.3,5.5
			C497.3,163.7,497.8,166.1,497.8,168.8z"/>
	</g>
</g>
<g>
	
		<image style="overflow:visible;opacity:0.2;" width="1259" height="557" xlink:href="9623B71B19F4DE60.png"  transform="matrix(0.24 0 0 0.24 222.8342 60.2204)">
	</image>
	<g>
		<g>
			<defs>
				<rect id="SVGID_219_" x="224.9" y="62.3" width="295.7" height="79.6"/>
			</defs>
			<clipPath id="SVGID_48_">
				<use xlink:href="#SVGID_219_"  style="overflow:visible;"/>
			</clipPath>
		</g>
		<g>
			<defs>
				<rect id="SVGID_221_" x="224.9" y="62.3" width="295.7" height="79.6"/>
			</defs>
			<clipPath id="SVGID_49_">
				<use xlink:href="#SVGID_221_"  style="overflow:visible;"/>
			</clipPath>
			<g class="st24">
				<path class="st16" d="M279.8,188.5h-4.9l7.4-35.1h-37.1l-7.3,35.1h-5l15.1-71.4h5l-6.8,31.7h37.1l6.7-31.7h4.9L279.8,188.5z"/>
				<path class="st16" d="M333.9,163.1h-25l-14,25.4h-5.7l40.1-71.7h3.3l9.8,71.7h-5.1L333.9,163.1z M333.3,158.6l-1.9-14.2
					c-1-7.9-1.6-14.4-1.9-19.6c-1,2.1-2,4.2-3.1,6.3c-1.1,2.2-6.1,11.3-15,27.5H333.3z"/>
				<path class="st16" d="M393.2,120.7c-6.4,0-12.1,1.7-17.2,5.1c-5,3.4-9,8.4-12,14.9c-2.9,6.5-4.4,13.7-4.4,21.5
					c0,7.3,1.8,13,5.4,16.9c3.6,3.9,8.8,5.9,15.5,5.9c4.6,0,9.5-0.8,14.8-2.5v4.6c-5.1,1.6-10.2,2.4-15.4,2.4
					c-8.2,0-14.5-2.4-18.8-7.1c-4.4-4.7-6.5-11.4-6.5-20c0-8.7,1.7-16.6,5.1-23.8c3.4-7.2,8-12.8,13.9-16.7
					c5.9-3.9,12.4-5.8,19.6-5.8c5.8,0,10.8,1.1,15,3.3l-2.2,4.4c-1.8-1-3.8-1.7-6.1-2.3C397.6,121,395.4,120.7,393.2,120.7z"/>
				<path class="st16" d="M451.1,188.5h-5.4L429,150l-9.3,7.5l-6.4,31h-5l15.1-71.4h5l-7.7,35.3l6.5-5.9l33.2-29.4h6.7L433,146.9
					L451.1,188.5z"/>
				<path class="st16" d="M501.8,168.8c0,4.1-1.1,7.8-3.2,11c-2.1,3.2-5.1,5.6-8.8,7.3c-3.7,1.6-8.1,2.4-13.1,2.4
					c-2.9,0-5.7-0.3-8.4-0.8c-2.8-0.6-5.5-1.5-8.4-2.8v-5.3c5.3,3,11,4.5,17,4.5c6.1,0,10.9-1.4,14.4-4.2c3.5-2.8,5.2-6.6,5.2-11.4
					c0-2-0.3-3.7-0.8-5.1c-0.6-1.4-1.4-2.7-2.6-3.8c-1.2-1.1-2.6-2.2-4.4-3.3s-3.9-2.3-6.4-3.7c-4.9-2.5-8.3-5.1-10.2-8
					c-1.9-2.9-2.9-6.2-2.9-10.1c0-3.8,1-7.2,2.9-10.1c1.9-2.9,4.6-5.2,8.1-6.8c3.5-1.6,7.3-2.4,11.6-2.4c3.2,0,6.2,0.3,8.8,0.9
					c2.6,0.6,5.4,1.6,8.2,3l-1.6,4.6c-2.1-1.3-4.6-2.3-7.4-3.1c-2.8-0.7-5.5-1.1-8-1.1c-5.3,0-9.5,1.3-12.7,4
					c-3.1,2.7-4.7,6.2-4.7,10.7c0,3.4,0.8,6.1,2.4,8.3c1.6,2.2,4.6,4.3,8.9,6.5c5,2.6,8.5,4.7,10.4,6.3c1.9,1.7,3.4,3.5,4.3,5.5
					C501.3,163.7,501.8,166.1,501.8,168.8z"/>
			</g>
		</g>
		<g>
			<defs>
				<rect id="SVGID_223_" x="224.9" y="62.3" width="295.7" height="79.6"/>
			</defs>
			<clipPath id="SVGID_50_">
				<use xlink:href="#SVGID_223_"  style="overflow:visible;"/>
			</clipPath>
		</g>
	</g>
</g>
<g>
	<g>
		<g>
			<path class="st12" d="M55.2,105.1c2.3,3.1,1.7,5.1,1.7,5.1s2.4,2.8,0.4,3.6c-4.8,1.9-22.6,5.1-24,5.1c-1.3,0-4.1,0-22.8-14.3
				l-1-0.8l-0.4-1.2c-0.4-1.2-0.3-2.5,0.3-3.7c1.6-3.1,9.8-6.6,15.7-8.7c-7.4-8.7-18.7-25.6-18.7-37c0-0.5,0-1.3,4.3-21.9
				c4.5-21.7,4.5-21.7,5.9-22.8l1.6-1.2l2,0.5c2.6,0.7,2.7,0.8,12,24.7c3.9,9.9,9.7,24.8,11.3,27.4c1.4,1.1,7.1,3.2,16.8,6.3
				c0.6,0.2,1.2,0.4,1.6,0.5l31-7.6l22.8,2.1c2.3,0-5.3-0.3-5.3,2s6.7,5.2,4.5,5.2l-8.5-1.2l-12.5,0l-29.9,7.3l-1.6,0.1l-2-0.1
				c-0.5-0.2-1.4-0.2-2.6-0.6c-11.3-3.6-17.8-5.9-20.2-8.3c-1.9-1.9-4.8-8.8-13.1-30.1c-1.4-3.5-2.9-7.3-4.2-10.8
				c-2.3,11.1-5.5,26.5-5.8,28.7c0.2,11.1,16.5,32.6,20.1,35.1l9.1,3.9L55.2,105.1z M14.6,53.3C14.6,53.3,14.6,53.3,14.6,53.3
				C14.6,53.3,14.6,53.3,14.6,53.3z"/>
			<path class="st12" d="M33.3,123.9c-2.7,0-5.8,0-25.8-15.4l-2.2-1.7l-0.9-2.6C3.5,101.7,3.8,99,5,96.7c1.1-2.1,3.5-4.8,12-8.5
				C9.9,78.6,1.4,64.3,1.4,53.3c0-1.1,0-1.8,4.4-22.9c4.9-23.5,4.9-23.5,7.8-25.7l3.6-2.7l4.3,1.2c3.2,0.9,4.8,2.4,6.7,6.3
				c1.6,3.2,3.7,8.7,8.7,21.4c2.8,7.2,8.3,21.4,10.4,25.5c1.4,0.6,5,2.1,14.6,5.1l0.3,0.1l30.5-7.4l23.3,2.1c0.1,0,0.2,0,0.2,0h5
				l0.1,5c0,1.4-0.7,2.9-1.9,3.9c0.9,1.2,1.5,2.7,0.8,4.8c-0.6,1.7-2.2,3.6-5.2,3.6l-0.7,0l-8.2-1.1l-11.5,0l-29.8,7.3l-2.3,0.1
				l-2.9-0.1l-0.6-0.2c-0.1,0-0.1,0-0.2,0c-0.6-0.1-1.4-0.3-2.4-0.6c-12.5-4-19.1-6.4-22.2-9.6c-2.3-2.3-4.3-6.6-12.3-27
				c-1.1,5.5-2,10-2.3,11.6c0.6,8.7,14.1,27.3,17.7,30.4l9.5,4.1l12.4,13.8c2,2.6,2.6,4.9,2.8,6.6c0.8,1.4,1.5,3.3,1,5.5
				c-0.5,2-1.9,3.5-3.8,4.3C53.9,120.6,35.5,123.9,33.3,123.9z M14.1,101.1c14.5,11.1,18.3,12.6,19.1,12.8
				c2.2-0.2,12.4-2.1,18.4-3.6l0.3-0.9c-0.1-0.2-0.2-0.6-0.6-1.1L40.8,96.7L32.3,93l-5.4,2C18.9,97.8,15.3,100.1,14.1,101.1z
				 M52,109.6L52,109.6L52,109.6z"/>
		</g>
	</g>
	<g>
		<g>
			<path class="st97" d="M171.7,91.8l8.4-4.2c3.5-2.4,19.7-23.9,19.9-34.9c-0.3-2.2-3.5-17.5-5.8-28.6c-1.4,3.4-2.9,7.3-4.2,10.8
				c-8.3,21.2-11.1,28.1-13,30c-2.4,2.4-8.9,4.7-20.1,8.3c-1.3,0.4-2.2,0.7-2.7,0.9l0,0l-2.3-0.1l-1.1-0.1L121,68.4l-12.4-2
				c-2.2,0-4.1-1.8-4.1-4.1s1.8-4.1,4.1-4.1l13.1,1.3l31.1,6.3c0.5-0.1,1-0.3,1.6-0.5c9.6-3,15.2-5.1,16.7-6.2
				c1.7-2.6,7.4-17.4,11.3-27.2c9.3-23.8,9.4-23.8,12-24.6l1.9-0.6L198,8c1.4,1.1,1.4,1.1,5.9,22.7c4.3,20.5,4.3,21.3,4.3,21.8
				c0,11.3-11.2,28.2-18.6,36.8c5.9,2.1,14,5.6,15.6,8.7c0.6,1.2,0.7,2.5,0.3,3.7l-0.4,1.2l-1,0.8c-18.6,14.3-21.3,14.3-22.7,14.3
				c-1.4,0-15.4-4.9-20.1-6.8c0,0,3.8-10.7,6.9-14C169.3,96,171.7,91.8,171.7,91.8z M200,52.5C200,52.5,200,52.5,200,52.5
				C200,52.5,200,52.5,200,52.5z"/>
			<path class="st98" d="M181.4,123.9c-3.5,0-22.2-7.1-22.4-7.2l-5.3-2.1l1.9-5.4c1-2.8,4.5-12.1,8.2-16.1c0.4-0.5,1.7-2.5,2.8-4.3
				l0.9-1.5l9.4-4.7c3.9-3.5,16.5-21.3,17.2-29.4c-0.2-1.3-0.8-4.2-1.6-8c-7,17.9-8.9,21.6-11.2,24c-3.3,3.3-9.6,5.7-22.5,9.8
				l-0.4,0.1c-0.9,0.3-1.7,0.5-2.1,0.7l-1.1,0.4l-3.9-0.2l-1.5-0.2L120,74.4l-12-1.9c-5.3-0.3-9.5-4.7-9.5-10
				c0-5.5,4.5-10.1,10.1-10.1l0.6,0l13.7,1.3l29.6,6l0.1,0c8.8-2.8,12.5-4.3,14.1-4.9c2.1-4.5,7.4-18.1,10.1-25
				c5-12.7,7.1-18.2,8.7-21.4c2-4.1,3.8-5.8,7.2-6.8l4.8-1.4l4,3c3.2,2.4,3.2,2.4,8.1,26.2c4.4,21.1,4.4,21.9,4.4,23.1
				c0,10.8-8,24.7-15,34.3c7.8,3.6,10.2,6.3,11.3,8.4c1.4,2.6,1.6,5.6,0.7,8.4l-1,2.9l-2.4,1.9C189.1,122.8,184.9,123.9,181.4,123.9
				z M182.2,112L182.2,112L182.2,112z M169.1,107.6c4.7,1.7,10.3,3.6,12.5,4.2c1.3-0.5,5.4-2.6,17.2-11.7c-1.7-1.1-5.2-2.9-11.3-5.2
				l-5-1.8l-6.5,3.3c-1.1,1.7-2.4,3.8-3.4,4.8C171.7,102.1,170.4,104.7,169.1,107.6z"/>
		</g>
	</g>
	<g>
		<g>
			<path class="st11" d="M107,208.6c-5.2,0-13.9-1.9-15-2.1l-1.2-0.3l-0.9-0.9c-18-18.6-18-19-18-21c0-0.6,0.1-2.1,0.3-4.8
				c0.2-2.6,0.4-6,0.5-8.1c0,0,0,0,0,0c-18.3-24.8-18.9-26.6-19.3-27.6c-0.6-1.7-0.5-4.8,0.1-16.1c0.2-3.8,0.4-7.7,0.4-10.4
				c0-2.2,1.9-4,4.1-4c0,0,0,0,0.1,0c2.3,0,4.1,1.9,4,4.2c-0.1,2.9-0.3,6.9-0.5,10.7c-0.2,4.5-0.6,11.2-0.4,13.1
				c0.7,1.2,3.8,6.1,18,25.3c1.3,1.7,1.7,2.2,1.7,3.6c0,2.1-0.3,6.5-0.5,10c-0.1,1-0.1,2.1-0.2,3c2.2,2.5,8.6,9.4,14.8,15.7
				c3.3,0.7,9.6,1.8,12.5,1.6c0.6,0,2.6,0,3.2,0c2.7,0.1,8.6-0.9,12.5-1.6c6.1-6.3,12.6-13.2,14.8-15.7c-0.1-0.8-0.1-1.9-0.2-3
				c-0.2-3.5-0.5-7.9-0.5-10c0-1.4,0.4-1.9,1.7-3.6c14.2-19.2,17.4-24.1,18-25.3c0.1-1.9-0.2-8.6-0.4-13.1
				c-0.2-3.9-0.4-7.8-0.5-10.7c0-2.3,5.3-6.6,7.5-6.7c0,0-3.5,2.5-3.4,2.5c2.2,0,4.1,1.8,4.1,4c0,2.7,0.2,6.6,0.4,10.4
				c0.6,11.3,0.6,14.4,0.1,16.1c-0.4,1-1,2.8-19.3,27.6c0,0,0,0,0,0c0.1,2.2,0.3,5.5,0.5,8.1c0.2,2.7,0.3,4.2,0.3,4.8
				c0,2,0,2.4-18,21l-0.9,0.9l-1.2,0.3c-1.1,0.2-10.9,2.3-15.9,2.1c-0.3,0-2,0-2.4,0C107.6,208.6,107.3,208.6,107,208.6z
				 M61.3,141.5L61.3,141.5L61.3,141.5z"/>
			<path class="st99" d="M107,212.6c-5.5,0-14.1-1.8-15.8-2.2l-2.4-0.5l-1.7-1.8c-18.4-19-19.1-19.9-19.1-23.8c0-0.8,0.1-2,0.3-5.1
				l0-0.2c0.1-2.1,0.3-4.5,0.4-6.5c-17.9-24.2-18.5-26-19-27.6c-0.8-2.4-0.8-5.3-0.2-17.6c0.2-3.7,0.4-7.6,0.4-10.3
				c0.1-4.4,3.7-8,8.1-8l0.2,0c2.1,0,4.1,0.9,5.6,2.5c1.5,1.6,2.3,3.6,2.3,5.8c-0.1,2.9-0.3,6.9-0.5,10.8l-4-0.1l4,0.2
				c-0.2,3.3-0.5,9.1-0.5,11.6c1.3,2,5.2,7.7,17.3,24.1c1.4,1.9,2.4,3.3,2.4,6c0,2.3-0.3,6.7-0.5,10.3l0,0.7c0,0.2,0,0.4,0,0.6
				c2.5,2.7,7.3,7.9,12.7,13.4c4.6,0.9,8.6,1.4,10.3,1.3c0.7,0,2.9,0,3.6,0c1.6,0.1,5.8-0.5,10.3-1.3c5.4-5.6,10.2-10.7,12.7-13.4
				c0-0.3,0-0.6-0.1-0.9l0-0.4c-0.2-3.6-0.5-8-0.5-10.3c0-2.7,1-4.1,2.4-6c12.1-16.4,16-22.2,17.3-24.1c0-2.5-0.3-8.4-0.5-11.7
				c-0.2-3.9-0.4-7.9-0.5-10.8c-0.1-2.9,2.3-5.6,4.3-7.3c1.5-1.3,4.4-3.4,7.2-3.5l2.9-0.1l0.9,2.8c0.5,1.5,0.2,2.5-0.5,3.4
				c0.8,1.2,1.3,2.7,1.3,4.3c0,2.6,0.2,6.4,0.4,10.1l0,0.2c0.6,12.3,0.7,15.2-0.2,17.6c-0.5,1.6-1.1,3.3-19,27.6
				c0.1,2,0.3,4.5,0.4,6.6c0.2,3.1,0.3,4.4,0.3,5.1c0,3.9-0.7,4.8-19.1,23.8l-1.7,1.8l-2.4,0.5c-1.9,0.4-11.5,2.4-16.9,2.2
				c-0.3,0-1.7,0-2,0C107.8,212.6,107.4,212.6,107,212.6z M92.9,202.6L92.9,202.6c3.6,0.8,11.1,2.2,14.8,2c0.5,0,2.3,0,2.7,0
				c3.7,0.2,11.3-1.2,14.8-2l0,0c8.9-9.2,15.8-16.4,16.9-18.2c0,0,0,0,0,0c0-0.5-0.1-2.3-0.3-4.5c-0.2-2.7-0.4-6.1-0.5-8.3l-0.1-1.4
				l0.8-1.1c11.9-16.1,18.2-25.1,18.7-26.5c0.4-1.1,0.1-6.5-0.3-14.6l0-0.2c-0.2-3.7-0.4-7.4-0.4-10.2c-0.1,0.1-0.1,0.2-0.2,0.3
				c0.1,2.8,0.3,6.5,0.4,10c0.3,6.3,0.6,11.6,0.4,13.6l-0.1,0.9l-0.4,0.8c-1.5,2.6-8,11.7-18.3,25.7c-0.3,0.5-0.7,1-0.9,1.2
				c0,2,0.3,6.4,0.5,9.7l0,0.4c0.1,0.9,0.1,1.9,0.2,2.6l0.1,1.6l-1.1,1.2c-2.4,2.7-9.2,9.9-14.9,15.8l-0.9,0.9l-1.2,0.2
				c-2.2,0.5-9.8,1.9-13.5,1.7c-0.4,0-2.3,0-2.8,0c-3.6,0.2-10.6-1.1-13.5-1.7l-1.2-0.2l-0.9-0.9c-5.7-5.9-12.5-13.1-14.9-15.8
				l-1.1-1.2l0.1-1.6c0-0.7,0.1-1.5,0.2-2.3l0-0.7c0.2-3.3,0.5-7.7,0.5-9.7c-0.2-0.3-0.5-0.8-0.9-1.2c-10.3-14-16.8-23.1-18.3-25.7
				l-0.4-0.8l-0.1-0.9c-0.2-2,0.1-7.3,0.4-13.5l0-0.1c0.2-3.8,0.4-7.8,0.4-10.6c0,0-0.1-0.1-0.1-0.1c-0.1,0-0.1,0-0.1,0.1
				c0,2.8-0.3,6.8-0.4,10.6c-0.4,8.1-0.7,13.5-0.3,14.6c0.5,1.5,6.8,10.4,18.7,26.5l0.9,1.1l0,1.4c-0.1,2.2-0.3,5.5-0.5,8.1l0,0.2
				c-0.2,2.2-0.3,4-0.3,4.5c0,0,0,0,0,0C77,186.2,84,193.4,92.9,202.6L92.9,202.6z"/>
		</g>
	</g>
	<g>
		<g>
			<path class="st100" d="M113.7,198.8c-5.2,0-13.8-1.9-14.8-2.1l-1.2-0.3l-0.8-0.9C79,177.1,79,176.7,79,174.7
				c0-0.6,0.1-2.1,0.3-4.8c0.2-2.6,0.4-6,0.5-8.1c0,0,0,0,0,0c-18.2-24.7-18.8-26.4-19.2-27.4c-0.6-1.7-0.5-4.8,0.1-16
				c0.1-1.7,0.2-3.4,0.2-5c-7.1,1.7-17.3,3.5-18.3,3.5c-1.2,0-4.1,0-22.7-14.3l-1-0.7l-0.4-1.2c-0.4-1.2-0.3-2.5,0.3-3.6
				c1.6-3.1,9.8-6.6,15.7-8.7c-7.4-8.6-18.7-25.7-18.7-37.1c0-0.5,0-1.3,4.3-21.9C24.6,7.7,24.6,7.7,26,6.6l1.6-1.2l1.9,0.5
				c2.6,0.7,2.7,0.8,12,24.7c3.9,9.9,9.7,24.9,11.4,27.4c1.4,1.1,7.1,3.2,16.8,6.3c0.6,0.2,1.2,0.4,1.6,0.5l31-7.6h26.9l31,7.6
				c0.5-0.2,1-0.3,1.6-0.5c9.7-3.1,15.3-5.2,16.8-6.3c1.7-2.6,7.5-17.5,11.4-27.4c9.3-23.9,9.4-23.9,12-24.7l1.9-0.5l1.6,1.2
				c1.4,1.1,1.4,1.1,5.9,22.7c4.3,20.6,4.3,21.4,4.3,21.9c0,11.4-11.4,28.4-18.7,37.1c5.9,2.1,14.1,5.6,15.7,8.7
				c0.6,1.2,0.7,2.4,0.3,3.6l-0.4,1.2l-1,0.7c-18.6,14.3-21.5,14.3-22.7,14.3c-1,0-11.2-1.8-18.3-3.5c0.1,1.6,0.2,3.3,0.2,5
				c0.6,11.2,0.6,14.3,0.1,16c-0.4,1-1,2.8-19.2,27.4c0,0,0,0,0,0c0.1,2.2,0.3,5.5,0.5,8.1c0.2,2.7,0.3,4.1,0.3,4.8
				c0,2,0,2.4-17.9,20.8l-0.8,0.9l-1.2,0.3c-1.1,0.2-10.8,2.3-15.8,2.1c-0.3,0-2,0-2.4,0C114.3,198.8,114,198.8,113.7,198.8z
				 M101.7,189.1c3.3,0.7,9.6,1.8,12.5,1.6c0.6,0,2.6,0,3.2,0c2.7,0.1,8.6-0.9,12.5-1.6c6.1-6.3,12.6-13.1,14.7-15.6
				c-0.1-0.8-0.1-1.9-0.2-3c-0.2-3.5-0.5-7.9-0.5-9.9c0-1.3,0.4-1.8,1.6-3.5c14.2-19.2,17.3-24,18-25.2c0.1-1.9-0.2-8.6-0.4-13.1
				c-0.2-3.8-0.4-7.8-0.4-10.6l-0.1-6l5.6,2.2c3.5,1.4,17,3.9,20.7,4.5c2.2-1,8.1-5.1,14-9.5c-4.4-2.1-11.6-4.7-14.1-5.4l-9-2.6
				l8.1-4.7c3.6-2.5,19.9-24.1,20.1-35.2c-0.3-2.3-3.5-17.8-5.9-29c-1.4,3.5-2.9,7.5-4.3,11c-8.3,21.3-11.2,28.2-13.1,30.1
				c-2.4,2.4-8.9,4.8-20.2,8.3c-1.3,0.4-2.2,0.7-2.7,0.9l-0.3,0.1l-1.4,0.3l-1.8-0.7l-29.9-7.3l-12.5,0l-12.5,0l-29.9,7.3l-1.5,0.3
				l-1.9,0c-0.5-0.2-1.5-0.5-2.7-0.9C56,68.3,49.5,66,47.1,63.6c-1.9-1.9-4.8-8.8-13.1-30.1c-1.4-3.6-2.9-7.5-4.3-11
				c-2.4,11.2-5.5,26.8-5.9,29C24,62.6,40.3,84.2,43.9,86.6l8.2,4.7L43,93.9c-2.5,0.7-9.7,3.4-14.1,5.4c5.9,4.3,11.8,8.5,14,9.5
				c3.7-0.6,17.3-3.1,20.7-4.5l5.6-2.2l-0.1,6c-0.1,2.8-0.3,6.8-0.4,10.6c-0.2,4.5-0.6,11.2-0.4,13.1c0.7,1.2,3.8,6,18,25.2
				c1.2,1.7,1.6,2.2,1.6,3.5c0,2.1-0.3,6.4-0.5,9.9c-0.1,1-0.1,2.1-0.2,3C89.2,176,95.6,182.8,101.7,189.1z M23.8,51.3
				C23.8,51.3,23.8,51.3,23.8,51.3C23.8,51.3,23.8,51.3,23.8,51.3z M207.8,51.3C207.8,51.3,207.8,51.3,207.8,51.3
				C207.8,51.3,207.8,51.3,207.8,51.3z"/>
		</g>
	</g>
</g>
<g>
	<g>
		<g>
			<path class="st12" d="M55.2,105.1c2.3,3.1,1.7,5.1,1.7,5.1s2.4,2.8,0.4,3.6c-4.8,1.9-22.6,5.1-24,5.1c-1.3,0-4.1,0-22.8-14.3
				l-1-0.8l-0.4-1.2c-0.4-1.2-0.3-2.5,0.3-3.7c1.6-3.1,9.8-6.6,15.7-8.7c-7.4-8.7-18.7-25.6-18.7-37c0-0.5,0-1.3,4.3-21.9
				c4.5-21.7,4.5-21.7,5.9-22.8l1.6-1.2l2,0.5c2.6,0.7,2.7,0.8,12,24.7c3.9,9.9,9.7,24.8,11.3,27.4c1.4,1.1,7.1,3.2,16.8,6.3
				c0.6,0.2,1.2,0.4,1.6,0.5l31-7.6l22.8,2.1c2.3,0-5.3-0.3-5.3,2s6.7,5.2,4.5,5.2l-8.5-1.2l-12.5,0l-29.9,7.3l-1.6,0.1l-2-0.1
				c-0.5-0.2-1.4-0.2-2.6-0.6c-11.3-3.6-17.8-5.9-20.2-8.3c-1.9-1.9-4.8-8.8-13.1-30.1c-1.4-3.5-2.9-7.3-4.2-10.8
				c-2.3,11.1-5.5,26.5-5.8,28.7c0.2,11.1,16.5,32.6,20.1,35.1l9.1,3.9L55.2,105.1z M14.6,53.3C14.6,53.3,14.6,53.3,14.6,53.3
				C14.6,53.3,14.6,53.3,14.6,53.3z"/>
			<path class="st12" d="M33.3,123.9c-2.7,0-5.8,0-25.8-15.4l-2.2-1.7l-0.9-2.6C3.5,101.7,3.8,99,5,96.7c1.1-2.1,3.5-4.8,12-8.5
				C9.9,78.6,1.4,64.3,1.4,53.3c0-1.1,0-1.8,4.4-22.9c4.9-23.5,4.9-23.5,7.8-25.7l3.6-2.7l4.3,1.2c3.2,0.9,4.8,2.4,6.7,6.3
				c1.6,3.2,3.7,8.7,8.7,21.4c2.8,7.2,8.3,21.4,10.4,25.5c1.4,0.6,5,2.1,14.6,5.1l0.3,0.1l30.5-7.4l23.3,2.1c0.1,0,0.2,0,0.2,0h5
				l0.1,5c0,1.4-0.7,2.9-1.9,3.9c0.9,1.2,1.5,2.7,0.8,4.8c-0.6,1.7-2.2,3.6-5.2,3.6l-0.7,0l-8.2-1.1l-11.5,0l-29.8,7.3l-2.3,0.1
				l-2.9-0.1l-0.6-0.2c-0.1,0-0.1,0-0.2,0c-0.6-0.1-1.4-0.3-2.4-0.6c-12.5-4-19.1-6.4-22.2-9.6c-2.3-2.3-4.3-6.6-12.3-27
				c-1.1,5.5-2,10-2.3,11.6c0.6,8.7,14.1,27.3,17.7,30.4l9.5,4.1l12.4,13.8c2,2.6,2.6,4.9,2.8,6.6c0.8,1.4,1.5,3.3,1,5.5
				c-0.5,2-1.9,3.5-3.8,4.3C53.9,120.6,35.5,123.9,33.3,123.9z M14.1,101.1c14.5,11.1,18.3,12.6,19.1,12.8
				c2.2-0.2,12.4-2.1,18.4-3.6l0.3-0.9c-0.1-0.2-0.2-0.6-0.6-1.1L40.8,96.7L32.3,93l-5.4,2C18.9,97.8,15.3,100.1,14.1,101.1z
				 M52,109.6L52,109.6L52,109.6z"/>
		</g>
	</g>
	<g>
		<g>
			<path class="st97" d="M171.7,91.8l8.4-4.2c3.5-2.4,19.7-23.9,19.9-34.9c-0.3-2.2-3.5-17.5-5.8-28.6c-1.4,3.4-2.9,7.3-4.2,10.8
				c-8.3,21.2-11.1,28.1-13,30c-2.4,2.4-8.9,4.7-20.1,8.3c-1.3,0.4-2.2,0.7-2.7,0.9l0,0l-2.3-0.1l-1.1-0.1L121,68.4l-12.4-2
				c-2.2,0-4.1-1.8-4.1-4.1s1.8-4.1,4.1-4.1l13.1,1.3l31.1,6.3c0.5-0.1,1-0.3,1.6-0.5c9.6-3,15.2-5.1,16.7-6.2
				c1.7-2.6,7.4-17.4,11.3-27.2c9.3-23.8,9.4-23.8,12-24.6l1.9-0.6L198,8c1.4,1.1,1.4,1.1,5.9,22.7c4.3,20.5,4.3,21.3,4.3,21.8
				c0,11.3-11.2,28.2-18.6,36.8c5.9,2.1,14,5.6,15.6,8.7c0.6,1.2,0.7,2.5,0.3,3.7l-0.4,1.2l-1,0.8c-18.6,14.3-21.3,14.3-22.7,14.3
				c-1.4,0-15.4-4.9-20.1-6.8c0,0,3.8-10.7,6.9-14C169.3,96,171.7,91.8,171.7,91.8z M200,52.5C200,52.5,200,52.5,200,52.5
				C200,52.5,200,52.5,200,52.5z"/>
			<path class="st98" d="M181.4,123.9c-3.5,0-22.2-7.1-22.4-7.2l-5.3-2.1l1.9-5.4c1-2.8,4.5-12.1,8.2-16.1c0.4-0.5,1.7-2.5,2.8-4.3
				l0.9-1.5l9.4-4.7c3.9-3.5,16.5-21.3,17.2-29.4c-0.2-1.3-0.8-4.2-1.6-8c-7,17.9-8.9,21.6-11.2,24c-3.3,3.3-9.6,5.7-22.5,9.8
				l-0.4,0.1c-0.9,0.3-1.7,0.5-2.1,0.7l-1.1,0.4l-3.9-0.2l-1.5-0.2L120,74.4l-12-1.9c-5.3-0.3-9.5-4.7-9.5-10
				c0-5.5,4.5-10.1,10.1-10.1l0.6,0l13.7,1.3l29.6,6l0.1,0c8.8-2.8,12.5-4.3,14.1-4.9c2.1-4.5,7.4-18.1,10.1-25
				c5-12.7,7.1-18.2,8.7-21.4c2-4.1,3.8-5.8,7.2-6.8l4.8-1.4l4,3c3.2,2.4,3.2,2.4,8.1,26.2c4.4,21.1,4.4,21.9,4.4,23.1
				c0,10.8-8,24.7-15,34.3c7.8,3.6,10.2,6.3,11.3,8.4c1.4,2.6,1.6,5.6,0.7,8.4l-1,2.9l-2.4,1.9C189.1,122.8,184.9,123.9,181.4,123.9
				z M182.2,112L182.2,112L182.2,112z M169.1,107.6c4.7,1.7,10.3,3.6,12.5,4.2c1.3-0.5,5.4-2.6,17.2-11.7c-1.7-1.1-5.2-2.9-11.3-5.2
				l-5-1.8l-6.5,3.3c-1.1,1.7-2.4,3.8-3.4,4.8C171.7,102.1,170.4,104.7,169.1,107.6z"/>
		</g>
	</g>
	<g>
		<g>
			<path class="st11" d="M107,208.6c-5.2,0-13.9-1.9-15-2.1l-1.2-0.3l-0.9-0.9c-18-18.6-18-19-18-21c0-0.6,0.1-2.1,0.3-4.8
				c0.2-2.6,0.4-6,0.5-8.1c0,0,0,0,0,0c-18.3-24.8-18.9-26.6-19.3-27.6c-0.6-1.7-0.5-4.8,0.1-16.1c0.2-3.8,0.4-7.7,0.4-10.4
				c0-2.2,1.9-4,4.1-4c0,0,0,0,0.1,0c2.3,0,4.1,1.9,4,4.2c-0.1,2.9-0.3,6.9-0.5,10.7c-0.2,4.5-0.6,11.2-0.4,13.1
				c0.7,1.2,3.8,6.1,18,25.3c1.3,1.7,1.7,2.2,1.7,3.6c0,2.1-0.3,6.5-0.5,10c-0.1,1-0.1,2.1-0.2,3c2.2,2.5,8.6,9.4,14.8,15.7
				c3.3,0.7,9.6,1.8,12.5,1.6c0.6,0,2.6,0,3.2,0c2.7,0.1,8.6-0.9,12.5-1.6c6.1-6.3,12.6-13.2,14.8-15.7c-0.1-0.8-0.1-1.9-0.2-3
				c-0.2-3.5-0.5-7.9-0.5-10c0-1.4,0.4-1.9,1.7-3.6c14.2-19.2,17.4-24.1,18-25.3c0.1-1.9-0.2-8.6-0.4-13.1
				c-0.2-3.9-0.4-7.8-0.5-10.7c0-2.3,5.3-6.6,7.5-6.7c0,0-3.5,2.5-3.4,2.5c2.2,0,4.1,1.8,4.1,4c0,2.7,0.2,6.6,0.4,10.4
				c0.6,11.3,0.6,14.4,0.1,16.1c-0.4,1-1,2.8-19.3,27.6c0,0,0,0,0,0c0.1,2.2,0.3,5.5,0.5,8.1c0.2,2.7,0.3,4.2,0.3,4.8
				c0,2,0,2.4-18,21l-0.9,0.9l-1.2,0.3c-1.1,0.2-10.9,2.3-15.9,2.1c-0.3,0-2,0-2.4,0C107.6,208.6,107.3,208.6,107,208.6z
				 M61.3,141.5L61.3,141.5L61.3,141.5z"/>
			<path class="st99" d="M107,212.6c-5.5,0-14.1-1.8-15.8-2.2l-2.4-0.5l-1.7-1.8c-18.4-19-19.1-19.9-19.1-23.8c0-0.8,0.1-2,0.3-5.1
				l0-0.2c0.1-2.1,0.3-4.5,0.4-6.5c-17.9-24.2-18.5-26-19-27.6c-0.8-2.4-0.8-5.3-0.2-17.6c0.2-3.7,0.4-7.6,0.4-10.3
				c0.1-4.4,3.7-8,8.1-8l0.2,0c2.1,0,4.1,0.9,5.6,2.5c1.5,1.6,2.3,3.6,2.3,5.8c-0.1,2.9-0.3,6.9-0.5,10.8l-4-0.1l4,0.2
				c-0.2,3.3-0.5,9.1-0.5,11.6c1.3,2,5.2,7.7,17.3,24.1c1.4,1.9,2.4,3.3,2.4,6c0,2.3-0.3,6.7-0.5,10.3l0,0.7c0,0.2,0,0.4,0,0.6
				c2.5,2.7,7.3,7.9,12.7,13.4c4.6,0.9,8.6,1.4,10.3,1.3c0.7,0,2.9,0,3.6,0c1.6,0.1,5.8-0.5,10.3-1.3c5.4-5.6,10.2-10.7,12.7-13.4
				c0-0.3,0-0.6-0.1-0.9l0-0.4c-0.2-3.6-0.5-8-0.5-10.3c0-2.7,1-4.1,2.4-6c12.1-16.4,16-22.2,17.3-24.1c0-2.5-0.3-8.4-0.5-11.7
				c-0.2-3.9-0.4-7.9-0.5-10.8c-0.1-2.9,2.3-5.6,4.3-7.3c1.5-1.3,4.4-3.4,7.2-3.5l2.9-0.1l0.9,2.8c0.5,1.5,0.2,2.5-0.5,3.4
				c0.8,1.2,1.3,2.7,1.3,4.3c0,2.6,0.2,6.4,0.4,10.1l0,0.2c0.6,12.3,0.7,15.2-0.2,17.6c-0.5,1.6-1.1,3.3-19,27.6
				c0.1,2,0.3,4.5,0.4,6.6c0.2,3.1,0.3,4.4,0.3,5.1c0,3.9-0.7,4.8-19.1,23.8l-1.7,1.8l-2.4,0.5c-1.9,0.4-11.5,2.4-16.9,2.2
				c-0.3,0-1.7,0-2,0C107.8,212.6,107.4,212.6,107,212.6z M92.9,202.6L92.9,202.6c3.6,0.8,11.1,2.2,14.8,2c0.5,0,2.3,0,2.7,0
				c3.7,0.2,11.3-1.2,14.8-2l0,0c8.9-9.2,15.8-16.4,16.9-18.2c0,0,0,0,0,0c0-0.5-0.1-2.3-0.3-4.5c-0.2-2.7-0.4-6.1-0.5-8.3l-0.1-1.4
				l0.8-1.1c11.9-16.1,18.2-25.1,18.7-26.5c0.4-1.1,0.1-6.5-0.3-14.6l0-0.2c-0.2-3.7-0.4-7.4-0.4-10.2c-0.1,0.1-0.1,0.2-0.2,0.3
				c0.1,2.8,0.3,6.5,0.4,10c0.3,6.3,0.6,11.6,0.4,13.6l-0.1,0.9l-0.4,0.8c-1.5,2.6-8,11.7-18.3,25.7c-0.3,0.5-0.7,1-0.9,1.2
				c0,2,0.3,6.4,0.5,9.7l0,0.4c0.1,0.9,0.1,1.9,0.2,2.6l0.1,1.6l-1.1,1.2c-2.4,2.7-9.2,9.9-14.9,15.8l-0.9,0.9l-1.2,0.2
				c-2.2,0.5-9.8,1.9-13.5,1.7c-0.4,0-2.3,0-2.8,0c-3.6,0.2-10.6-1.1-13.5-1.7l-1.2-0.2l-0.9-0.9c-5.7-5.9-12.5-13.1-14.9-15.8
				l-1.1-1.2l0.1-1.6c0-0.7,0.1-1.5,0.2-2.3l0-0.7c0.2-3.3,0.5-7.7,0.5-9.7c-0.2-0.3-0.5-0.8-0.9-1.2c-10.3-14-16.8-23.1-18.3-25.7
				l-0.4-0.8l-0.1-0.9c-0.2-2,0.1-7.3,0.4-13.5l0-0.1c0.2-3.8,0.4-7.8,0.4-10.6c0,0-0.1-0.1-0.1-0.1c-0.1,0-0.1,0-0.1,0.1
				c0,2.8-0.3,6.8-0.4,10.6c-0.4,8.1-0.7,13.5-0.3,14.6c0.5,1.5,6.8,10.4,18.7,26.5l0.9,1.1l0,1.4c-0.1,2.2-0.3,5.5-0.5,8.1l0,0.2
				c-0.2,2.2-0.3,4-0.3,4.5c0,0,0,0,0,0C77,186.2,84,193.4,92.9,202.6L92.9,202.6z"/>
		</g>
	</g>
	<g>
		<g>
			<path class="st100" d="M113.7,198.8c-5.2,0-13.8-1.9-14.8-2.1l-1.2-0.3l-0.8-0.9C79,177.1,79,176.7,79,174.7
				c0-0.6,0.1-2.1,0.3-4.8c0.2-2.6,0.4-6,0.5-8.1c0,0,0,0,0,0c-18.2-24.7-18.8-26.4-19.2-27.4c-0.6-1.7-0.5-4.8,0.1-16
				c0.1-1.7,0.2-3.4,0.2-5c-7.1,1.7-17.3,3.5-18.3,3.5c-1.2,0-4.1,0-22.7-14.3l-1-0.7l-0.4-1.2c-0.4-1.2-0.3-2.5,0.3-3.6
				c1.6-3.1,9.8-6.6,15.7-8.7c-7.4-8.6-18.7-25.7-18.7-37.1c0-0.5,0-1.3,4.3-21.9C24.6,7.7,24.6,7.7,26,6.6l1.6-1.2l1.9,0.5
				c2.6,0.7,2.7,0.8,12,24.7c3.9,9.9,9.7,24.9,11.4,27.4c1.4,1.1,7.1,3.2,16.8,6.3c0.6,0.2,1.2,0.4,1.6,0.5l31-7.6h26.9l31,7.6
				c0.5-0.2,1-0.3,1.6-0.5c9.7-3.1,15.3-5.2,16.8-6.3c1.7-2.6,7.5-17.5,11.4-27.4c9.3-23.9,9.4-23.9,12-24.7l1.9-0.5l1.6,1.2
				c1.4,1.1,1.4,1.1,5.9,22.7c4.3,20.6,4.3,21.4,4.3,21.9c0,11.4-11.4,28.4-18.7,37.1c5.9,2.1,14.1,5.6,15.7,8.7
				c0.6,1.2,0.7,2.4,0.3,3.6l-0.4,1.2l-1,0.7c-18.6,14.3-21.5,14.3-22.7,14.3c-1,0-11.2-1.8-18.3-3.5c0.1,1.6,0.2,3.3,0.2,5
				c0.6,11.2,0.6,14.3,0.1,16c-0.4,1-1,2.8-19.2,27.4c0,0,0,0,0,0c0.1,2.2,0.3,5.5,0.5,8.1c0.2,2.7,0.3,4.1,0.3,4.8
				c0,2,0,2.4-17.9,20.8l-0.8,0.9l-1.2,0.3c-1.1,0.2-10.8,2.3-15.8,2.1c-0.3,0-2,0-2.4,0C114.3,198.8,114,198.8,113.7,198.8z
				 M101.7,189.1c3.3,0.7,9.6,1.8,12.5,1.6c0.6,0,2.6,0,3.2,0c2.7,0.1,8.6-0.9,12.5-1.6c6.1-6.3,12.6-13.1,14.7-15.6
				c-0.1-0.8-0.1-1.9-0.2-3c-0.2-3.5-0.5-7.9-0.5-9.9c0-1.3,0.4-1.8,1.6-3.5c14.2-19.2,17.3-24,18-25.2c0.1-1.9-0.2-8.6-0.4-13.1
				c-0.2-3.8-0.4-7.8-0.4-10.6l-0.1-6l5.6,2.2c3.5,1.4,17,3.9,20.7,4.5c2.2-1,8.1-5.1,14-9.5c-4.4-2.1-11.6-4.7-14.1-5.4l-9-2.6
				l8.1-4.7c3.6-2.5,19.9-24.1,20.1-35.2c-0.3-2.3-3.5-17.8-5.9-29c-1.4,3.5-2.9,7.5-4.3,11c-8.3,21.3-11.2,28.2-13.1,30.1
				c-2.4,2.4-8.9,4.8-20.2,8.3c-1.3,0.4-2.2,0.7-2.7,0.9l-0.3,0.1l-1.4,0.3l-1.8-0.7l-29.9-7.3l-12.5,0l-12.5,0l-29.9,7.3l-1.5,0.3
				l-1.9,0c-0.5-0.2-1.5-0.5-2.7-0.9C56,68.3,49.5,66,47.1,63.6c-1.9-1.9-4.8-8.8-13.1-30.1c-1.4-3.6-2.9-7.5-4.3-11
				c-2.4,11.2-5.5,26.8-5.9,29C24,62.6,40.3,84.2,43.9,86.6l8.2,4.7L43,93.9c-2.5,0.7-9.7,3.4-14.1,5.4c5.9,4.3,11.8,8.5,14,9.5
				c3.7-0.6,17.3-3.1,20.7-4.5l5.6-2.2l-0.1,6c-0.1,2.8-0.3,6.8-0.4,10.6c-0.2,4.5-0.6,11.2-0.4,13.1c0.7,1.2,3.8,6,18,25.2
				c1.2,1.7,1.6,2.2,1.6,3.5c0,2.1-0.3,6.4-0.5,9.9c-0.1,1-0.1,2.1-0.2,3C89.2,176,95.6,182.8,101.7,189.1z M23.8,51.3
				C23.8,51.3,23.8,51.3,23.8,51.3C23.8,51.3,23.8,51.3,23.8,51.3z M207.8,51.3C207.8,51.3,207.8,51.3,207.8,51.3
				C207.8,51.3,207.8,51.3,207.8,51.3z"/>
		</g>
	</g>
</g>
</svg>
